<?xml version="1.0" encoding="utf-8"?>
<!-- Generator: Adobe Illustrator 27.9.0, SVG Export Plug-In . SVG Version: 6.00 Build 0)  -->
<svg version="1.1" id="Layer_1" xmlns="http://www.w3.org/2000/svg" xmlns:xlink="http://www.w3.org/1999/xlink" x="0px" y="0px"
	 viewBox="0 0 677.49 685.59" style="enable-background:new 0 0 677.49 685.59;" xml:space="preserve">
<style type="text/css">
	.st0{fill:#FFFFFF;}
</style>
<g>
	<path class="st0" d="M620.37,367.37c-0.6,64.01-19.85,118.44-58.35,165.65c-44.28,54.31-101.47,87.59-170.36,99.64
		c-85.82,15.01-164.18-3.43-233.12-57.15c-49.96-38.93-82.94-89.71-95.57-151.93c-16.69-82.19,2.43-156.33,56.45-220.59
		c44.25-52.64,101.21-84.39,168.9-95.48c90.17-14.77,171.37,6.45,240.99,66.18c47.88,41.08,77.38,93.39,87.65,156.03
		c0.67,4.09,1.48,8.19,1.8,12.32C619.5,351.48,619.97,360.94,620.37,367.37z M59.04,377.77c0.99,8.67,1.7,24.87,4.85,40.58
		c13.19,65.8,47.17,119.09,100.69,159.2c68.45,51.3,145.72,68.22,229.44,52.74c66.48-12.3,122.33-44.57,165.22-97.26
		c50.4-61.92,69.07-132.83,54.2-211.28c-12.71-67.06-48.46-120.69-103.29-160.84c-64.27-47.07-136.63-63.99-215.35-52.46
		c-64.45,9.44-119.62,37.72-164.34,85.19C83.81,243.14,60.01,302.16,59.04,377.77z"/>
	<path class="st0" d="M330.72,110.3c80.02,1.49,144.2,24.57,197.94,74.09c44.05,40.59,71.74,90.53,79.81,149.94
		c10.81,79.53-12.03,149.2-66.63,208c-41.03,44.18-91.9,71.78-151.08,81.85c-93.9,15.99-177.38-6.89-247.39-72.82
		c-40.04-37.7-65.22-84.15-74.48-138.36c-11.74-68.73,2.69-132.21,43.52-188.8c43.1-59.74,102-95.33,174.24-108.66
		C303.58,112.43,320.9,111.43,330.72,110.3z M536.94,277.24l-0.18-0.18c2.13,4.9,4.26,9.81,6.06,13.95
		c9.34-3.58,18.18-6.97,27.2-10.43c1.78,4.53,3.89,8.27,4.59,12.25c0.51,2.93,0.14,7.07-1.64,9.03c-1.62,1.78-5.67,1.36-8.96,1.97
		c-1.79,1.44-3.97,4.48-6.64,4.98c-2.55,0.48-5.59-1.68-7.45-2.34c3.22,13.76,6.66,28.52,10.14,43.37c14.14,0,28.55,0,43.11,0
		c-0.12-2.44-0.13-4.58-0.34-6.71c-0.29-2.97-0.62-5.95-1.09-8.9c-9.6-60.86-37.96-111.54-84.53-151.49
		c-53.99-46.32-117.19-67.47-188.28-65.43c-33.04,0.94-64.91,7.47-95.3,20.3c-69.01,29.15-118.5,77.74-145.56,148.15
		c-7.88,20.51-12.44,41.81-14.09,64.07c14.73,0,29.12,0,43.84,0c0.64-4.37,1.07-8.64,1.91-12.84
		c11.61-57.77,42.18-103.13,90.98-135.74c53.94-36.05,113.45-46.86,176.61-33.42c61.12,13,109.17,46.13,142.92,99.2
		C532.42,270.47,534.71,273.84,536.94,277.24z M126.71,371.3c0.97,11.49,1.21,21.5,2.74,31.31c6.34,40.81,24.23,76.25,53.14,105.43
		c52.91,53.42,117.7,73.92,191.59,63.32c56.41-8.1,103.49-34.82,137.96-80.59c44.56-59.17,54.97-125,25.73-193.1
		c-35.33-82.29-102-122.67-190.19-128.06c-38.68-2.37-75.79,6.06-109.9,24.72C167.34,232.84,129.19,291.66,126.71,371.3z
		 M73.82,392.28c1.75,10.12,2.96,19.95,5.18,29.55c12.62,54.6,40.87,99.73,83.6,135.8c42.06,35.5,90.84,55.68,145.32,61.87
		c33.1,3.76,66.16,2.22,98.34-6.81c101.78-28.56,168.28-92.18,193.22-196.4c1.86-7.78,2.53-15.84,3.79-24.03
		c-15.03,0-29.12,0-43.33,0c-0.32,1.66-0.7,3.11-0.87,4.59c-3.34,29.84-13.12,57.49-28.99,82.89
		c-50,80.05-143.36,116.48-232.72,100.65c-39.18-6.94-74.34-23.04-104.95-48.58c-34.98-29.18-58.64-65.7-69.84-109.97
		c-2.46-9.72-3.86-19.71-5.75-29.56C102.75,392.28,88.82,392.28,73.82,392.28z M96.59,372.83c0,5.28,0,10.03,0,15.01
		c4.44,0.4,9.05,1.1,11.36-3.18c1.19-2.21,1.19-6.03,0.07-8.31C105.85,371.91,101.19,372.61,96.59,372.83z M595.84,360.7
		c-0.08-5.34-2.24-8.13-6.15-7.95c-3.52,0.16-5.68,3.26-5.62,8.05c0.07,5.22,2.32,8.33,5.98,8.28
		C593.73,369.03,595.92,365.86,595.84,360.7z M583.1,384.01c-0.33,0.39-0.67,0.77-1,1.16c1.57,0.96,3.13,2.67,4.71,2.68
		c1.63,0.01,4.46-1.4,4.68-2.57c0.64-3.46,0.83-7.27-0.04-10.62c-0.35-1.36-4.17-2.95-5.9-2.49c-1.61,0.43-3.49,3.45-3.46,5.3
		c0.03,1.55,2.46,3.31,4.18,4.47c0.78,0.53,2.39-0.17,3.69-0.32C589.08,386.67,588.62,386.81,583.1,384.01z M106.3,358
		c-1.34-4.4-4.01-4.87-6.51-4.1c-1.56,0.48-3.99,3-3.72,3.63c0.77,1.82,2.68,3.17,4.21,4.65c0.32,0.31,1.08,0.21,1.36,0.54
		c0.74,0.87,1.32,1.87,1.97,2.82c-1.25,0.38-2.53,1.12-3.75,1.03c-1.14-0.09-2.2-1.07-4.09-2.09c1.33,4.87,4.25,5.24,7,4.35
		c1.51-0.49,3.73-3.06,3.43-3.92c-0.63-1.82-2.69-3.17-4.23-4.64c-0.31-0.29-1.16-0.06-1.39-0.36c-0.71-0.92-1.25-1.98-1.85-2.98
		c1.17-0.26,2.36-0.81,3.49-0.7C103.3,356.31,104.33,357.1,106.3,358z M574.39,366.6c3.29-3.8,7.88-6.71,4.98-11.8
		c-0.75-1.32-4.08-1.8-6.08-1.54c-1.28,0.17-2.28,2.41-3.41,3.72c0.66,0.56,1.32,1.12,1.98,1.69c0.41-0.87,0.6-2.11,1.29-2.52
		c0.98-0.59,3.08-1.12,3.36-0.73c0.72,1.01,1.3,2.83,0.85,3.82c-0.79,1.74-2.37,3.12-3.68,4.61c-1.2,1.37-2.48,2.68-4.22,4.55
		c4.49,0,7.86,0,11.23,0c0.02-0.34,0.03-0.67,0.05-1.01C578.88,367.16,577,366.93,574.39,366.6z M84.76,354.04
		c0,5.21,0,10.06,0,15.19c2.86-0.18,5.27-0.32,7.69-0.47c-0.01-0.41-0.02-0.82-0.02-1.24c-1.83-0.28-3.67-0.55-5.28-0.8
		c-2.19-4.92,2.44-4.09,4.93-5.4c-2.24-1.74-7.62-0.32-4.7-5.34c1.65-0.36,3.27-0.72,4.88-1.07c-0.03-0.29-0.06-0.59-0.1-0.88
		C89.8,354.04,87.44,354.04,84.76,354.04z M85.9,388.92c4.78-4.87-2.23-12.98,5.95-15.56c-3.37,0-6.75,0-10.12,0
		c-0.01,0.32-0.02,0.64-0.04,0.96c1.26,0.45,2.53,0.89,4.21,1.49C85.9,379.98,85.9,383.96,85.9,388.92z M550.86,295.15
		c1.83,2.73,3.12,4.89,4.73,6.78c0.27,0.32,2.88-0.59,2.88-0.94c0.02-2.6-0.35-5.2-0.64-8.27
		C555.24,293.63,553.72,294.16,550.86,295.15z M567.61,288.7c-2.31,1.01-3.88,1.69-7.23,3.15c3.03,2.3,5.8,5.56,6.96,5.06
		C571.51,295.11,568.09,292.1,567.61,288.7z M574.28,387.88c0.68,0.01,1.37,0.01,2.05,0.02c0-4.26-0.13-8.53,0.04-12.78
		c0.15-3.8-1.8-3.44-3.22-3.05C573.55,377.68,573.91,382.78,574.28,387.88z"/>
	<path class="st0" d="M340.71,186.96c65.85,2.2,120.35,28.13,159.11,83.55c23.18,33.14,33.69,70.66,29.69,110.78
		c-7.58,76.05-49.1,128.27-119.63,155.07c-69.3,26.33-135.23,15.78-193.91-30.04c-38.63-30.17-61.26-70.66-66.17-119.62
		c-5.71-56.93,13.13-105.63,54-145.5c31.02-30.26,68.75-46.94,111.52-52.63c0.66-0.09,1.33-0.12,1.99-0.16
		C324.77,187.95,332.23,187.49,340.71,186.96z M336.27,193.05c-5.6,0.51-14.58,0.95-23.45,2.18c-45.69,6.33-84.85,25.9-114.82,61.01
		c-45.85,53.72-56.52,114.49-28.69,179.67c31.9,74.74,111.93,115.38,191.12,106.66c39.54-4.35,74.91-19.1,104.54-45.82
		c43.05-38.82,63.53-87.12,58.1-145.4c-3.79-40.66-21.19-75.17-49.99-103.67C436.26,211.23,391.23,194.01,336.27,193.05z"/>
	<path class="st0" d="M137.62,271.9c-0.96,2.14-1.75,3.9-2.72,6.05c-4.55-1.94-8.85-3.78-13.16-5.63c-0.32,0.4-0.64,0.81-0.96,1.21
		c3.1,2.74,6.38,5.31,9.21,8.32c0.95,1.01,1.4,3.42,0.84,4.62c-0.52,1.12-2.67,2.02-4.13,2.07c-3.72,0.12-7.47-0.29-11.45,0.45
		c3.91,1.91,7.81,3.82,11.95,5.84c-0.91,1.98-1.71,3.74-2.76,6.02c-8.45-3.85-16.66-7.59-24.81-11.3c1.51-7.48,1.55-7.47,8.55-7.35
		c4.58,0.08,9.17,0.02,14.38,0.02c-3.18-3.45-5.87-7.01-9.2-9.8c-4.29-3.6-4.95-7.08-0.6-11.81
		C120.72,264.21,129.03,267.99,137.62,271.9z"/>
	<path class="st0" d="M201.21,183.18c2.53,4.22,5.06,8.45,7.85,13.11c-1.8,1.23-3.37,2.29-5.52,3.76
		c-4.91-7.93-9.68-15.63-14.41-23.27c3.03-4.13,6.24-4.43,10.36-2.05c3.84,2.22,8.04,3.82,12.88,5.07
		c-2.53-4.25-5.06-8.51-7.89-13.25c1.77-1.13,3.5-2.23,5.65-3.6c4.92,7.96,9.69,15.67,14.42,23.31c-3.19,3.99-6.45,4.28-10.54,1.92
		c-3.83-2.21-8.01-3.83-12.03-5.72C201.73,182.71,201.47,182.95,201.21,183.18z"/>
	<path class="st0" d="M432.49,161.58c1.07,2.12,2.14,5.79-1.17,9.02c-3.25,3.16-7.02,2.12-10.68,0.79
		c-3.54-1.28-7.05-2.67-11.11-4.21c3.26-8.79,6.38-17.22,9.68-26.15c4.23,1.55,8.05,2.94,11.87,4.35c3.47,1.28,6.76,3.39,6.23,7.31
		C436.93,155.49,434.52,158.01,432.49,161.58z M417.65,165.07c3.15,0.33,5.73,0.72,8.32,0.74c0.33,0,1.23-2.57,0.91-2.84
		c-1.93-1.67-4.13-3.02-6.74-4.82C419.17,160.84,418.59,162.46,417.65,165.07z M421.51,154.58c3.06,0.28,5.36,0.62,7.65,0.55
		c0.34-0.01,1.19-2.55,0.85-2.85c-1.71-1.52-3.73-2.69-6.01-4.23C423.11,150.4,422.54,151.89,421.51,154.58z"/>
	<path class="st0" d="M229.72,184.52c-3.95-8.83-7.65-17.1-11.7-26.14c5.15-1.82,9.96-4.19,15.04-5.14
		c6.75-1.27,11.79,2.35,14.23,8.92c2.4,6.44,0.72,12.39-5.07,16.02C238.45,180.52,234.28,182.23,229.72,184.52z M227.62,159.73
		c-0.19,0.69-0.37,1.38-0.56,2.06c2.06,4.63,4.13,9.25,6.26,14.04c4.04-1.02,7.76-2.61,7.77-6.72c0.01-2.92-1.4-7.05-3.58-8.44
		C235.03,159.08,230.99,159.94,227.62,159.73z"/>
	<path class="st0" d="M158.09,242.42c-7.11-6.29-13.92-12.3-21.16-18.7c3.36-3.57,6.23-7.24,9.7-10.19c5.52-4.69,12.52-4.09,18,0.98
		c5.13,4.76,6.15,11.68,2.1,17.53C164.21,235.7,161.05,238.9,158.09,242.42z M157.91,233.08c3.45-2.59,6.04-5.95,4.12-9.85
		c-1.26-2.56-4.43-4.97-7.24-5.81c-3.98-1.18-6.58,1.85-8.55,5.45C150.25,226.37,154.09,229.73,157.91,233.08z"/>
	<path class="st0" d="M333.72,127.49c7.98-0.03,14.53,6.6,14.42,14.62c-0.11,8.05-6.65,14.35-14.81,14.27
		c-7.82-0.08-14.03-6.4-14.1-14.36C319.16,133.96,325.58,127.53,333.72,127.49z M333.47,150.21c4.3,0.09,7.71-3.48,7.71-8.04
		c-0.01-4.72-3.15-8.38-7.31-8.51c-4.3-0.14-7.64,3.36-7.67,8.02C326.17,146.33,329.4,150.13,333.47,150.21z"/>
	<path class="st0" d="M368.77,129.29c8.23,0.05,14.36,6.06,14.34,14.05c-0.02,8.27-6.42,14.62-14.57,14.45
		c-8.08-0.16-14.36-6.36-14.35-14.18C354.2,135.25,360.31,129.24,368.77,129.29z M368.76,151.5c4.19-0.02,7.29-3.48,7.39-8.24
		c0.1-4.67-3.02-7.91-7.59-7.89c-4.36,0.02-7.55,3.79-7.4,8.75C361.3,148.58,364.32,151.52,368.76,151.5z"/>
	<path class="st0" d="M179.59,186.95c7.67-0.03,14.2,6.58,14.2,14.38c0,8.06-6.32,14.25-14.71,14.4
		c-7.67,0.14-14.1-6.39-14.12-14.34C164.94,193.32,171.36,186.98,179.59,186.95z M187.34,202.69c0.36-4.1-3.92-9.1-7.99-9.33
		c-3.93-0.23-7.63,2.86-7.97,6.65c-0.38,4.18,3.75,9.02,7.95,9.33C183.14,209.62,187.02,206.4,187.34,202.69z"/>
	<path class="st0" d="M265.73,168.49c-7.97-0.09-13.99-6.36-13.87-14.45c0.12-8.19,6.43-14.08,14.96-13.96
		c7.97,0.11,13.92,6.36,13.82,14.51C280.53,162.86,274.4,168.58,265.73,168.49z M266.42,146.29c-4.49-0.09-7.68,2.86-7.7,7.15
		c-0.03,4.85,3.25,8.81,7.42,8.96c4.18,0.16,7.71-3.17,7.72-7.28C273.87,150.15,270.7,146.38,266.42,146.29z"/>
	<path class="st0" d="M139.61,268.35c-5.6-7.43-11.29-14.74-16.56-22.33c-0.65-0.93,0.58-3.61,1.54-5.08
		c0.73-1.11,2.61-2.44,3.68-2.22c8.71,1.85,17.34,4.04,26.51,6.25c-1.61,3.21-1.99,6.66-6.83,5.46c-1.02-0.25-2.8,1.65-3.88,2.87
		c-1.3,1.46-2.22,3.26-3.46,5.15C144.43,261.95,143,265.07,139.61,268.35z M132.06,246.12c-0.18,0.31-0.37,0.62-0.55,0.93
		c1.76,2.23,3.51,4.47,5.58,7.1c1.44-2.21,2.45-3.77,3.74-5.75C137.42,247.51,134.74,246.82,132.06,246.12z"/>
	<path class="st0" d="M443.68,175.4c-2.84,4.24-5.96,3.44-9.52-0.06c7.02-6.46,14.15-13.02,21.22-19.54
		c7.5,2.93,7.52,2.93,6.46,10.59c-1,7.2-2.04,14.4-3.11,21.97c-3.41-1.29-7.06-1.65-5.97-6.79c0.17-0.81-1.9-2.33-3.17-3.15
		C447.79,177.27,445.77,176.46,443.68,175.4z M455.36,164.9c-2.75,2.76-4.75,4.77-6.94,6.97c1.81,0.89,3.49,1.72,5.64,2.79
		C454.52,171.24,454.88,168.54,455.36,164.9z"/>
	<path class="st0" d="M536.94,277.24c-0.67-2.02-1.55-3.99-1.98-6.05c-0.99-4.73,0.62-8.68,4.75-11.1
		c5.11-2.99,10.49-5.54,16.08-8.46c1.18,2.03,2.15,3.69,3.41,5.85c-4.8,2.5-9.43,4.9-14.04,7.33c-2.84,1.5-5.19,3.26-3.38,7.01
		c1.9,3.95,4.85,3.32,7.95,1.75c4.57-2.31,9.11-4.67,13.86-7.12c1.02,1.94,1.93,3.67,3.23,6.14c-6.19,2.97-11.97,6.09-18.02,8.54
		c-4.84,1.96-8.42-1.47-12.03-4.07C536.76,277.06,536.94,277.24,536.94,277.24z"/>
	<path class="st0" d="M530.27,230.85c-0.94-2.87-1.96-5.71-2.81-8.61c-1.03-3.54-3.01-5.9-6.96-5.91c-3.68-0.01-7.98,3.63-8.47,7.21
		c-0.52,3.79,1.14,6.28,4.7,7.8c2.79,1.19,5.4,2.79,8.8,4.58c-6.56,3.91-12.51,2.48-16.83-2.92c-4.81-6.01-4.44-13.46,0.95-18.87
		c5.36-5.39,13.1-5.95,18.94-1.37c5.8,4.54,7.09,11.22,3.42,17.58C531.42,230.5,530.84,230.68,530.27,230.85z"/>
	<path class="st0" d="M312.95,135.5c-3.85,0.76-7.08,1.4-10.81,2.14c0.12,1.73,0.23,3.44,0.38,5.54c2.94-0.31,5.49-0.58,8.38-0.89
		c0.37,1.53,0.71,2.92,1.12,4.59c-2.7,0.67-5.2,1.29-8.11,2.02c0.43,3.63,0.86,7.15,1.33,11.09c-2.37,0.25-4.27,0.46-6.57,0.7
		c-1.54-9.15-3.02-17.91-4.59-27.26c5.95-1.07,11.58-2.07,17.83-3.19C312.27,132.05,312.58,133.66,312.95,135.5z"/>
	<path class="st0" d="M391.45,133.52c6.88,1.76,13.57,3.47,20.47,5.23c-0.43,1.76-0.77,3.14-1.21,4.92
		c-2.44-0.42-4.65-0.8-7.18-1.23c-1.85,7.1-3.67,14.08-5.6,21.47c-2.28-0.54-4.15-0.98-6.5-1.54c1.79-7.29,3.5-14.27,5.18-21.16
		C394.41,138.87,387.24,140.52,391.45,133.52z"/>
	<path class="st0" d="M489.87,212.92c-4.16-3.49-7.95-6.66-11.92-9.99c6.1-7.24,12.03-14.28,18.14-21.52
		c1.83,1.61,3.3,2.9,5.02,4.42c-4.82,5.85-9.51,11.53-14.37,17.43c2.29,2.04,4.33,3.86,6.66,5.93
		C492.1,210.56,491.04,211.68,489.87,212.92z"/>
	<path class="st0" d="M528.58,250.26c1.74,2.71,3.07,4.78,4.63,7.22c-1.29,0.98-2.52,1.9-4.06,3.07c-2.96-4.4-5.71-8.49-8.8-13.08
		c7.72-5.11,15.25-10.11,23.29-15.44c1.24,1.78,2.41,3.45,3.86,5.52C541.12,241.83,535.01,245.93,528.58,250.26z"/>
	<path class="st0" d="M483.52,172.53c-4.31,6.35-8.38,12.35-12.71,18.73c2.35,1.67,4.6,3.27,7.18,5.1
		c-0.93,1.39-1.79,2.67-2.84,4.24c-4.36-2.95-8.45-5.71-13.01-8.8c5.22-7.66,10.31-15.13,15.75-23.11
		C479.81,170,481.49,171.15,483.52,172.53z"/>
	<path class="st0" d="M310.64,595.1c-1.49,3.84-3.28,7.59-4.4,11.53c-1.27,4.51-3.5,6.53-8.71,4.47c-1.48-8.92-3.01-18.15-4.65-28
		c2.35,0.31,4.04,0.53,5.83,0.76c0.91,6.81,1.77,13.31,2.63,19.81c0.26,0.05,0.51,0.11,0.77,0.16c1.96-5.2,4.03-10.37,5.83-15.62
		c0.79-2.31,1.81-4.35,4.4-3.22c1.55,0.67,3.27,2.55,3.61,4.16c1.1,5.17,1.6,10.47,3.23,16c2.16-6.16,4.32-12.33,6.53-18.63
		c1.91,0.13,3.54,0.25,5.82,0.4c-3.32,8.67-6.37,17.01-9.82,25.18c-0.41,0.97-3.14,1.56-4.6,1.28c-1.12-0.21-2.52-1.93-2.79-3.19
		c-1.08-4.95-1.76-9.98-2.59-14.98C311.38,595.17,311.01,595.14,310.64,595.1z"/>
	<path class="st0" d="M152.68,521.09c3.29-3.3,4.8-2.27,12.31,7.95c-4.94,5.78-12.16,6.83-17.94,2.62
		c-5.94-4.33-7.81-12.57-4.21-18.6c3.98-6.67,12.44-9.23,19-5.73c6.75,3.6,9.34,10.74,5.76,19.18c-1.42-3.05-2.9-5.07-3.28-7.27
		c-0.85-4.99-5.03-8.88-9.49-8.19c-5.31,0.82-9.58,6.82-8.32,11.69c1.3,5.01,5.59,7.05,11.69,5.15c-0.97-1.25-1.81-2.38-2.69-3.47
		C154.58,523.28,153.61,522.18,152.68,521.09z"/>
	<path class="st0" d="M566.92,486.38c-1.22,3.99-3.41,5.12-6.93,4.94c-5.56-0.29-11.16-0.08-17.05,1.12
		c4.63,3.04,9.26,6.09,14.27,9.38c-0.88,1.5-1.68,2.86-2.75,4.68c-7.88-5.05-15.51-9.94-23.12-14.82c0.94-4.01,3.3-5.12,6.96-4.96
		c5.57,0.24,11.16,0.06,17.12-0.99c-4.72-3.14-9.44-6.28-14.42-9.59c0.83-1.43,1.63-2.8,2.71-4.67
		C551.56,476.51,559.18,481.41,566.92,486.38z"/>
	<path class="st0" d="M571.4,455.29c-4.96,7.39-4.96,7.39-7.88,5.58c1.99-4.11,4-8.26,5.99-12.36c7.58,2.02,11.08,7.86,9.48,15.46
		c-1.55,7.37-8.53,12.12-16,10.89c-7.64-1.26-12.92-8.2-12.03-15.81c0.87-7.44,6.5-12.31,15.56-11.85
		c-2.57,2.53-4.12,4.61-6.16,5.95c-4.32,2.83-5.67,8.02-2.74,12.02c3.3,4.48,9.82,5.69,13.66,2.52
		C575.24,464.41,575.3,459.17,571.4,455.29z"/>
	<path class="st0" d="M133.57,508.85c-7.65-0.07-14.15-6.74-14.08-14.45c0.06-7.37,7.08-14.28,14.54-14.32
		c7.56-0.04,14.6,7.3,14.36,14.94C148.14,502.58,141.33,508.93,133.57,508.85z M143.24,494.12c0.01-4.19-4-8.25-8.23-8.35
		c-5.08-0.12-10.43,4.72-10.4,9.38c0.03,4.21,4.15,8.48,8.23,8.52C137.8,503.73,143.23,498.74,143.24,494.12z"/>
	<path class="st0" d="M530.25,529.15c-7.72-0.1-14.27-6.67-14.25-14.3c0.02-7.77,6.5-14.31,14.18-14.33
		c7.86-0.02,14.83,6.94,14.61,14.57C544.56,522.81,537.9,529.25,530.25,529.15z M529.63,505.87c-4.21-0.05-8.31,3.85-8.51,8.11
		c-0.22,4.67,4.98,9.84,9.94,9.89c4.38,0.04,8.24-3.66,8.43-8.1C539.7,510.94,534.7,505.92,529.63,505.87z"/>
	<path class="st0" d="M252.03,600.26c2.6-8.99,5.1-17.67,7.65-26.49c2.94,0.79,5.5,1.42,8.02,2.16c4.57,1.35,9.07,2.96,9.49,8.69
		c0.41,5.48-3.27,7.9-8.24,9.39c0.85,3.82,1.66,7.46,2.57,11.56c-3.89-0.04-6.17-0.98-6.74-5c-0.44-3.06-1.68-6-2.57-8.99
		c-0.54,0.03-1.08,0.07-1.62,0.1c-1.15,3.3-2.29,6.59-3.57,10.27C255.27,601.36,253.79,600.86,252.03,600.26z M261.25,588.48
		c3.57-0.24,6.38-0.17,9.03-0.79c0.61-0.14,1.4-3.4,0.88-3.88c-1.97-1.81-4.45-3.06-7.17-4.8
		C263,582.44,262.36,584.63,261.25,588.48z"/>
	<path class="st0" d="M492.27,533.35c2.46-2.28,4.6-4.34,6.82-6.3c3.34-2.95,6.94-5.54,11.57-2.93c4.65,2.62,5.28,6.83,3.56,11.94
		c3.82,1.29,7.51,2.53,11.36,3.83c-2.05,4.02-4.78,4.57-8.58,3.01c-2.64-1.09-5.56-1.48-8.35-2.19c-0.23,0.51-0.45,1.03-0.68,1.54
		c2.26,2.54,4.51,5.09,7.12,8.03c-1.35,1.07-2.6,2.06-4.29,3.4C504.78,547.07,498.6,540.29,492.27,533.35z M505.32,539.55
		c1.76-2.82,3.51-5.05,4.46-7.57c0.25-0.67-2.26-3.43-2.93-3.23c-2.59,0.74-4.95,2.28-7.75,3.71
		C501.33,535.01,502.74,536.62,505.32,539.55z"/>
	<path class="st0" d="M397.22,580.12c3.56-0.97,6.59-1.72,9.57-2.64c4.52-1.38,8.72-1.21,11.36,3.22c2.57,4.31,1.43,8.27-2.78,11.76
		c2.99,2.72,5.9,5.37,8.93,8.12c-3.82,3.17-6.43,2.2-9.11-0.81c-1.91-2.14-4.35-3.81-6.55-5.69c-0.4,0.36-0.81,0.72-1.21,1.08
		c0.81,3.29,1.62,6.57,2.5,10.13c-1.51,0.51-3.02,1.02-5.08,1.72C402.29,598.01,399.83,589.36,397.22,580.12z M406.46,591.97
		c2.99-2.18,5.42-3.59,7.25-5.55c0.47-0.5-0.81-3.91-1.56-4.02c-2.61-0.38-5.35,0.11-8.44,0.3
		C404.69,586.04,405.34,588.21,406.46,591.97z"/>
	<path class="st0" d="M214.35,551.6c1.76,1.15,2.98,1.95,4.51,2.96c-1.68,3.23-3.27,6.29-5.09,9.81c3.32,1.88,6.56,3.71,10.15,5.75
		c1.94-3.32,3.75-6.42,5.73-9.82c1.7,0.93,3.1,1.69,4.76,2.59c-4.49,8.11-8.82,15.91-13.35,24.09c-1.62-0.73-3.03-1.37-4.91-2.22
		c1.88-3.62,3.6-6.92,5.5-10.56c-3.3-1.88-6.44-3.67-10.13-5.77c-1.95,3.37-3.81,6.61-5.86,10.15c-1.47-0.75-2.87-1.48-4.81-2.48
		C205.33,567.95,209.7,560.02,214.35,551.6z"/>
	<path class="st0" d="M398.16,608.16c-3.47,0.88-5.44,0.81-7.82-2c-1.34-1.58-6.08-1.01-8.98-0.24c-1.73,0.46-2.86,3.18-5.05,5.83
		c-0.16,0.03-1.76,0.31-4.04,0.71c1.7-9.4,3.24-18.46,5.09-27.45c0.19-0.93,2.18-2.09,3.32-2.08c1.52,0.02,3.76,0.65,4.41,1.76
		C389.55,592.25,393.67,600,398.16,608.16z M382.49,590.7c-0.37,0.05-0.73,0.09-1.1,0.14c-0.47,3.31-0.93,6.61-1.47,10.38
		c2.86-0.45,5.01-0.78,7.65-1.19C385.61,596.42,384.05,593.56,382.49,590.7z"/>
	<path class="st0" d="M473.18,557.25c-3.04,0.25-5.42,0.22-7.69,0.69c-1.63,0.34-3.24,1.18-4.61,2.15
		c-0.44,0.31-0.41,2.34-0.02,2.56c1.44,0.81,3.1,1.55,4.71,1.62c1.77,0.08,3.56-0.65,5.36-0.95c6.29-1.04,10.79,4.01,8.93,9.99
		c-2.21,7.12-12.38,9.35-18.66,2.63c3.19-0.27,5.46-0.28,7.66-0.7c1.79-0.34,3.62-0.94,5.15-1.89c0.6-0.37,0.85-2.73,0.49-2.96
		c-1.38-0.86-3.07-1.67-4.65-1.66c-2.61,0-5.23,0.95-7.84,0.96c-4.36,0.01-7.41-3.52-7.05-7.85c0.41-4.86,3.91-7.18,7.93-8.6
		C466.53,551.95,470.08,552.32,473.18,557.25z"/>
	<path class="st0" d="M422.5,572.73c5.16-2.04,9.73-3.84,14.71-5.81c0.63,1.42,1.17,2.65,1.8,4.08c-3.2,1.34-6.07,2.55-9.44,3.96
		c0.72,2.06,1.4,3.97,1.86,5.29c3.77,1.89,7.61-5.02,10.77,1.64c-2.84,1.25-5.47,2.41-8.55,3.78c0.8,2.14,1.53,4.09,2.46,6.59
		c3.27-1.13,6.31-2.18,9.47-3.27c1.9,2.08,2.47,3.83-0.97,5.06c-3.88,1.38-7.7,2.94-11.94,4.57
		C429.28,589.98,426.03,581.71,422.5,572.73z"/>
	<path class="st0" d="M159.49,544.62c6.28-7.04,12.23-13.7,18.54-20.76c3.82,3.36,7.61,6.7,11.77,10.35
		c-0.92,1.23-1.74,2.31-2.63,3.51c-2.83-2.33-5.37-4.41-8.15-6.7c-1.44,1.66-2.71,3.12-4.14,4.77c2.39,2.12,4.57,4.06,6.86,6.09
		c-5.51,6.51-6.7-2.26-10.93-1.46c-0.86,0.93-2.27,2.47-4.09,4.45c2.7,2.32,5.17,4.44,8,6.87c-1.24,1.32-2.08,2.21-3.27,3.48
		C167.44,551.66,163.54,548.21,159.49,544.62z"/>
	<path class="st0" d="M247.07,586.1c-2.98-1.09-5.59-2.04-8.48-3.1c-0.88,2.08-1.7,4.03-2.73,6.48c3.08,1.4,6.02,2.74,9.36,4.25
		c-0.48,1.27-0.97,2.55-1.54,4.06c-4.87-1.99-9.44-3.86-14.71-6.02c3.51-8.62,6.96-17.1,10.51-25.81c5.11,2.09,9.81,4.02,14.79,6.06
		c-0.61,1.45-1.08,2.59-1.68,4.02c-3.28-1.24-6.33-2.39-9.6-3.62c-0.93,2.11-1.71,3.9-2.54,5.78c2.69,1.61,5.33,3.11,7.8,4.84
		C248.44,583.18,247.52,584.95,247.07,586.1z"/>
	<path class="st0" d="M337.06,613.26c0-9.18,0-18.09,0-27.61c4.75,0,9.21-0.09,13.65,0.09c0.78,0.03,1.51,1.22,2.26,1.88
		c-0.77,0.83-1.46,2.27-2.31,2.37c-2.58,0.32-5.23,0.11-8.1,0.11c0,2.5,0,4.43,0,6.93c2.11,0.11,4.24,0.02,6.27,0.42
		c0.97,0.19,1.74,1.34,2.6,2.06c-0.89,0.72-1.69,1.9-2.67,2.07c-1.9,0.33-3.9,0.1-6.16,0.1c0,2.4,0,4.33,0,6.27
		c2.51,3.38,9.62-2.72,10.65,5.32C347.8,613.26,342.76,613.26,337.06,613.26z"/>
	<path class="st0" d="M124.23,463.42c0.67-3.46-5.46-6.44,1.34-8.81c3.15,5.59,6.3,11.19,9.71,17.23c-1.24,0.74-2.38,1.41-3.7,2.19
		c-1.31-2.13-2.42-3.95-3.75-6.11c-6.72,3.74-13.32,7.43-20.24,11.28c-0.94-1.65-1.73-3.04-2.68-4.7
		C111.79,470.57,118.33,466.81,124.23,463.42z"/>
	<path class="st0" d="M485.93,543.58c4.46,6.19,8.81,12.23,13.39,18.59c-1.32,1.14-2.51,2.17-4.13,3.56
		c-4.66-6.35-9.15-12.46-13.79-18.79c-1.91,1.24-3.69,2.4-5.85,3.81c-0.86-1-1.74-2.03-2.85-3.31c5.53-4.02,10.74-7.81,16.31-11.85
		c0.87,1.29,1.62,2.4,2.44,3.62C489.48,540.75,487.82,542.08,485.93,543.58z"/>
	<path class="st0" d="M191.38,541.48c0.82-1.12,1.56-2.15,2.5-3.43c5.37,3.87,10.58,7.63,15.76,11.36
		c-1.69,3.82-1.69,3.82-8.13,0.08c-4.47,6.08-8.96,12.19-13.57,18.46c-1.49-1.05-2.69-1.89-4.38-3.08
		c4.5-6.3,8.88-12.45,13.41-18.79C195.11,544.55,193.34,543.1,191.38,541.48z"/>
	<path class="st0" d="M98.88,374.16c2.74,1.1,5.58,1.39,6.67,2.93c1.06,1.49,1.18,4.84,0.17,6.31c-1.18,1.7-4.04,2.24-6.84,3.61
		C98.88,382.21,98.88,378.83,98.88,374.16z"/>
	<path class="st0" d="M585.23,360.67c2.05-2.32,3.4-5.2,4.88-5.27c3.99-0.18,3.12,3.81,3.05,5.99c-0.06,1.74-2.09,3.41-3.25,5.11
		C588.56,364.83,587.21,363.15,585.23,360.67z"/>
	<path class="st0" d="M591.24,376.7c-1.9,1.52-3.14,3.17-3.9,2.97c-1.25-0.33-2.6-1.7-3.06-2.94c-0.21-0.55,1.6-2.62,2.54-2.65
		C587.99,374.04,589.2,375.4,591.24,376.7z"/>
	<path class="st0" d="M225.09,355.73c-0.38,3.56-0.85,6.65-1.02,9.75c-0.23,4.26,1.72,7.75,5.59,9.12
		c4.01,1.42,8.54,0.95,11.36-2.62c4.58-5.81,8.63-12.05,12.86-18.14c2.91-4.18,5.75-8.4,9.15-13.36
		c-8.72,4.23-14.57,10.62-18.97,17.22c-1.82-4.06-4.05-8.09-5.41-12.4c-0.98-3.1-0.91-6.55-1.1-9.86
		c-0.6-10.78,6.04-16.32,14.87-20.16c2.79-1.21,6.13-1.59,8.46-3.35c2-1.5,3.25-4.3,4.24-6.76c1.48-3.67-2.79-7.93,0.95-11.63
		c0.4-0.4-0.03-1.88-0.37-2.75c-2.33-6.03-4.79-12.02-7.1-18.06c-1.74-4.54-3.1-9.25-5.1-13.67c-0.7-1.55-2.64-3.08-4.3-3.54
		c-3.57-0.98-3.78-3.7-2.53-5.7c0.91-1.44,4.12-2.55,5.79-2.06c1.33,0.4,2.11,3.36,2.67,5.32c0.25,0.9-0.63,2.12-1.09,3.47
		c9.78,4.86,19.41,9.64,29.31,14.56c2.39-10.66,4.6-20.37,6.68-30.11c0.21-1-0.13-2.97-0.6-3.09c-1.29-0.35-2.77,0.04-4.75-0.34
		c1.44-0.66,3.01-2.04,4.27-1.8c1.34,0.25,3.22,1.9,3.44,3.18c1.36,7.93,5.26,14.03,12.07,18.25c4.42,2.73,8.8,5.54,13.41,7.92
		c1.14,0.59,3.79,0.24,4.5-0.66c4.96-6.28,9.69-12.74,14.31-19.28c2.85-4.04,5.25-4.09,8.15-0.09c4.52,6.24,9.18,12.39,13.86,18.52
		c4.18,5.47,7.76,0.47,11.05-1.15c3.83-1.88,6.9-5.24,10.61-7.43c5.78-3.42,7.38-9,8.95-14.86c0.43-1.6,1.78-3.52,3.21-4.13
		c1.26-0.53,3.21,0.56,4.85,0.94c-0.12,0.42-0.24,0.84-0.36,1.26c-1.42-0.31-2.83-0.62-5.57-1.21c2.44,11.57,4.71,22.37,7.18,34.09
		c9.91-4.88,19.48-9.6,29.35-14.46c-0.26-1.04-0.58-2.1-0.79-3.18c-0.51-2.61-0.66-5.49,2.77-5.7c1.91-0.12,4.83,0.85,5.7,2.29
		c1.38,2.28,0.46,4.51-2.81,5.57c-1.8,0.58-3.79,2.52-4.47,4.3c-3.78,9.87-7.83,19.72-10.46,29.92c-1.39,5.4-0.45,11.53,0.16,17.25
		c0.32,3.01,2.57,4.62,6.15,5.64c7.98,2.28,15.13,6.52,20.17,13.54c0.94,1.31,1.96,2.56,3.38,4.4c-1.44-0.57-2.39-0.95-4.55-1.81
		c5.11,10.92-1.68,19.39-4.21,28.52c-5.52-5.8-10.37-13.44-18.89-16.32c3.61,5.42,7.14,10.81,10.77,16.13
		c3.36,4.92,6.5,10.05,10.36,14.55c3.12,3.63,7.62,4.36,12.23,2.56c4.32-1.69,4.96-5.54,4.93-9.41c-0.03-2.93-0.77-5.85-1.18-8.69
		c5.68,4.65,9.36,11.78,7.57,16.64c-3.27,8.89-8.59,15.91-17.71,16.5c4.09,4.63,8.61,9.75,13.13,14.87
		c8.57,9.72,8.23,24.87-0.34,34.11c-4.42,4.76-9.63,8.8-15.51,12.79c11.07-10.45,2.75-20.28-0.29-30.18c0,2.25,0.06,4.51-0.01,6.76
		c-0.31,9.67-4.65,17.47-10.7,24.82c-7.16,8.71-17.03,15.31-21.08,26.45c-1.1,3.02-1.85,6.23-2.23,9.41
		c-0.38,3.11-0.08,6.3-0.08,10.32c-6.04-7.02-8.06-14.85-9.37-24.04c-1.99,2.13-3.33,4.05-5.11,5.39
		c-11.87,8.92-24.09,17.4-35.68,26.67c-6.89,5.51-12.85,12.18-19.52,18.61c-0.1-0.11-1.3-1-1.9-2.18
		c-4.13-8.19-11.6-12.89-18.59-18.12c-11.27-8.44-22.56-16.86-33.74-25.42c-1.47-1.12-2.33-3.03-4.44-5.89
		c-1.11,9.86-3.04,18.2-9.59,25.14c0-4.9,0.33-9.36-0.07-13.76c-0.76-8.44-5.94-14.57-11.54-20.36
		c-6.5-6.73-14.21-12.73-17.78-21.55c-2.84-7-3.85-14.73-5.38-20.95c-5.61,8.52-5.77,17.92,0.51,27.95
		c-11.03-3.79-19.44-13.94-21.31-23.9c-3.27-17.34,9.29-26.34,20.65-36.19c-7.59-2.47-15.36-4.65-17.73-13.5
		C217.23,368.6,218.14,361.32,225.09,355.73z M384.38,330.17c0.16-0.38,0.33-0.75,0.49-1.13c2.6,0.7,5.19,1.4,7.79,2.1
		c0.22-0.46,0.43-0.91,0.65-1.37c-4.91-2.65-9.82-5.3-14.73-7.94c0.13-0.4,0.26-0.81,0.4-1.21c6.4,1.28,12.8,2.55,19.19,3.83
		c-3.75-2.72-7.73-5.39-12.09-6.32c-13.42-2.86-25.95,0.42-37.98,6.56c-2.76,1.41-6.46,2.77-9.18,2.06
		c-6.29-1.62-12.36-4.29-18.32-6.98c-8.11-3.66-16.49-3.54-24.67-1.42c-5.11,1.33-9.73,4.53-14.57,6.89
		c0.13,0.09,0.25,0.17,0.38,0.26c7.58-1.72,15.16-3.43,22.73-5.15c0.08,0.4,0.15,0.8,0.23,1.2c-5.17,2.84-10.35,5.67-15.52,8.51
		c0.24,0.47,0.49,0.94,0.73,1.41c2.54-0.81,5.09-1.62,7.63-2.43c-12.02,9.28-19.45,20.67-22.3,35.79c1.53-1.24,2.47-1.99,4.35-3.51
		c-3.46,8.03-3.45,14.97-1.5,21.86c1.94,6.87,4.84,13.51,6.26,20.47c0.99,4.82,0.19,10.01,0.19,15.04c0.36,0.06,0.71,0.12,1.07,0.19
		c1.15-4.45,2.31-8.89,3.58-13.8c1.45,4.2,2.83,8.17,4.21,12.15c0.45-0.11,0.91-0.22,1.36-0.33c-0.99-5.44-1.44-11.04-3.1-16.27
		c-1.74-5.48-5.1-10.44-6.91-15.91c-2.86-8.65-5.66-17.53-0.45-25.33c1.82,8.4,3.82,17.61,5.81,26.82c0.57-0.01,1.15-0.02,1.72-0.03
		c1.5-1.93,3-3.85,5.3-6.81c0,6.25,0,11.04,0,15.83c4.01-4.35,6.91-9.01,12.72-11.39c-2.41,4.77-4.71,8.73-6.47,12.91
		c-2.57,6.12-1.66,7.57,4.49,9.39c6.44,1.91,12.82,4.03,19.23,6.06c-0.05,0.33-0.1,0.65-0.15,0.98c-8.44-1.85-16.88-3.69-26.42-5.78
		c0.99,2.01,1.34,4.26,2.44,4.71c4.05,1.66,8.27,3.01,12.55,3.93c3.83,0.82,7.81,0.91,11.73,1.32c-0.03,0.4-0.07,0.8-0.1,1.19
		c-8.41-0.76-16.81-1.53-25.76-2.34c1.88,6.97,7.89,5.06,12.06,5.86c4.86,0.93,9.94,0.67,15.41,0.96
		c-8.46,5.43-17.01,0.13-25.63,1.02c2.89,2.7,5.9,5.08,9.32,6.11c7.71,2.33,14.49,0.26,21.27-4.33c4.34-2.94,5.41-5.8,4.06-10.12
		c-1.77-5.65-6.76-7.96-11.49-10.61c-6.84-3.82-8.86-6.29-7.84-12.17c1.39,1.89,3.01,4.1,5.57,7.57c-0.42-5.98,2.49-6.34,5.75-6.33
		c7.16,0.03,14.31,0.08,21.47,0c3.74-0.04,7.49-0.37,8.76,5.28c1.38-2.28,2.76-4.55,4.21-6.94c1.39,5.21-0.79,9.11-5.85,11.83
		c-3.97,2.14-7.83,4.53-11.48,7.15c-3.68,2.65-4.03,10.14-0.8,12.65c7.79,6.06,16.4,9.03,26.12,5.64c2.79-0.97,6.89-1.69,6.21-7.02
		c-8.18,1.78-16.21,4.49-24.32,0.71c7.76-0.85,15.09-1.68,22.41-2.43c3.03-0.31,4.38-1.72,3.83-4.67
		c-8.59,0.7-17.03,1.39-25.47,2.08c6.02-1.76,12.12-2.23,18.05-3.49c7.55-1.61,8.44-2.89,7.48-7.63c-4.19,1.21-8.33,2.69-12.59,3.57
		c-4.11,0.84-8.35,1.06-12.53,1.55c0.03-0.11,0.06-0.22,0.09-0.33c8.11-2.45,16.21-4.89,24.46-7.38c0.8-8.27-3.09-14.7-7.22-21.07
		c0.41-0.32,0.82-0.64,1.24-0.96c3.71,4.17,7.41,8.34,12.06,13.57c0-5.95,0-10.96,0-16.77c1.95,2.7,3.42,4.74,4.89,6.79
		c0.57-0.09,1.14-0.18,1.71-0.28c1.91-9.12,3.82-18.25,5.74-27.37c0.44,0.68,1.58,1.67,1.65,2.73c0.34,4.78,1.52,9.9,0.29,14.3
		c-2.75,9.79-6.79,19.21-10.24,28.81c-1.54,4.29-2.58,8.64,0.29,13.06c0.94-4.11,1.88-8.21,2.89-12.62
		c1.41,4.99,2.64,9.34,3.87,13.68c-0.35-8.53,0.47-16.52,3.55-24.5c2.34-6.05,3.58-12.56,4.94-18.95c0.96-4.51-1.16-9.02,0.3-13.88
		c0.89-2.97-0.75-7.35-2.53-10.33C398.46,342.82,393.27,334.79,384.38,330.17z M366.13,468c6.87-9.38,5.85-19.49,3.48-30.23
		c-1.35,0.45-2.27,0.51-2.84,0.99c-4.84,4.07-10.55,3.05-15.59,1.6c-6.74-1.94-12.85-1.79-19.63-0.02
		c-4.32,1.13-9.4-0.57-14.13-1.13c-1.53-0.18-3-0.8-4.52-1.22c-3.8,15.21-1.67,26,4.64,30.14c1.04-2.73,2.1-5.52,3.32-8.73
		c3.13,3.43,1.51,9.18,6.81,9.97c0.57-4.21,1.1-8.17,1.7-12.6c4,5.76,7.46,10.75,11.91,17.16c4.44-6.45,7.88-11.45,11.8-17.14
		c0.59,4.42,1.12,8.37,1.89,14.12c2.73-4.15,4.73-7.19,6.9-10.48C363.24,462.87,364.63,465.34,366.13,468z M340.91,244.05
		c-5.97,7.61-11.78,14.67-17.17,22.05c-2.93,4.02-3.82,4.41-7.73,1.08c-0.97-0.82-2.18-1.35-3.22-2.1
		c-5.73-4.17-11.63-8.15-17.05-12.69c-1.99-1.66-2.82-4.69-4.51-7.67c-2.2,10.33-4.24,19.86-6.34,29.74
		c-9.24-4.53-18.17-8.9-28.55-13.98c4.24,11.04,7.95,20.86,11.88,30.59c0.3,0.74,2.2,0.83,4.32,1.55
		c-3.83-9.52-7.18-17.87-10.95-27.26c8.94,4.53,16.67,8.44,25.08,12.7c1.93-8.15,3.85-16.22,5.66-23.9
		c9.72,6.47,19.23,12.81,29,19.31c5.64-7.61,11.29-15.03,16.69-22.63c2.11-2.96,4.26-1.6,5.54,0.01
		c5.29,6.64,10.42,13.42,15.23,20.41c1.58,2.29,1.91,2.26,4.22,0.66c8.93-6.17,18.19-11.84,27.39-17.74
		c2.76,7.27,1.48,16.19,5.67,23.55c8.2-4.1,15.73-7.87,24.56-12.29c-3.71,9.55-6.97,17.93-10.45,26.87c1.61-0.28,3.43-0.16,3.65-0.7
		c4.16-10.22,8.14-20.51,12.5-31.68c-10.21,5.14-19.43,9.78-28.92,14.56c-2.25-10.16-4.35-19.62-6.62-29.85
		c-0.84,1.21-1.46,1.75-1.61,2.39c-1.42,6.35-6.19,9.6-11.3,12.72c-4.35,2.65-8.37,5.84-12.65,8.6c-2.12,1.36-4.37,2.14-6.4-0.58
		C353.04,259.96,347.13,252.24,340.91,244.05z M298.98,473.27c-14.14-16.34-24.67-33.96-20.19-57.75c-1.07,1.28-1.55,1.6-1.63,1.99
		c-2.37,12.69-3.92,25.07,1.64,37.73c4.86,11.08,12.54,18.99,22.12,25.67c5.51,3.84,10.8,8,16.33,11.8
		c4.35,2.98,8.92,5.63,13.39,8.43c-6.8-8.1-14.34-15.28-21.79-22.55c-5.52-5.38-10.26-11.39-11.32-19.28
		c-0.77-5.73-0.73-11.57-1.07-17.35c-0.05-0.82-0.21-1.63-0.32-2.44C291.32,451.3,292.48,462.48,298.98,473.27z M350.92,499.9
		c0.21,0.29,0.42,0.58,0.63,0.87c0.46-0.04,1.03,0.08,1.36-0.15c9.39-6.56,18.53-13.51,28.19-19.66
		c9.09-5.79,15.95-13.2,21.12-22.61c7.39-13.47,5.09-27.34,2.78-41.32c0.81,10.06-0.16,19.76-3.66,29.4
		c-3.06,8.44-12.37,22.64-16.27,22.89c5.41-9.07,5.7-27.08,1.16-29.53c0.2,3.62,0.81,7.65,0.51,11.61c-0.24,3.21-1.78,6.29-2.41,9.5
		c-1.45,7.33-5.85,13.04-10.78,18.08C366.38,486.3,358.5,492.95,350.92,499.9z M436.36,398.18c-1.76-2.69-3.52-5.39-5.29-8.08
		c5,3.5,9.41,7.41,14,11.11c5.9,4.76,12.61,8.75,14.33,17.06c0.24,1.16,1.46,2.11,2.38,3.36c1.36-6.8-2.23-11.9-5.87-15.89
		c-6.87-7.54-15.37-13.58-22.28-21.09c-4.36-4.75-7.76-10.73-10.3-16.7c-2.34-5.48-2.75-11.75-4.38-17.58
		c-1.71-6.12-6.27-9.88-11.54-12.79c2.36,3.5,4.72,6.99,7.08,10.49c-0.74,0.65-1.48,1.31-2.22,1.96c-1.33-2.84-2.65-5.69-3.98-8.53
		c-0.59,0.55-1.17,1.11-1.76,1.66c1.46,2.77,3.24,5.42,4.3,8.33c2.37,6.52,4.51,13.14,6.51,19.79
		C420.66,382.34,427.94,390.7,436.36,398.18z M273.54,338.8c-0.41-0.24-0.82-0.48-1.23-0.72c-1.94,2.34-4.55,4.39-5.68,7.07
		c-2.73,6.49-5.63,13.11-6.88,19.97c-1.43,7.87-5.66,13.91-10.65,19.29c-7.19,7.73-15.67,14.25-22.88,21.97
		c-3.6,3.85-6.97,8.71-5.36,16.3c4.14-16.07,18.55-21.01,27.71-31.03c0.36,0.23,0.71,0.45,1.07,0.68c-0.71,1.47-1.41,2.95-2.4,5
		c1.19-0.46,2.04-0.54,2.49-1c7.89-8.05,12.94-17.9,17.13-28.15c3.16-7.73,5.6-15.75,8.31-23.66c0.12-0.34-0.26-0.85-0.65-2.02
		c-2.01,2.57-3.7,4.73-5.39,6.89c-0.32-0.25-0.65-0.51-0.97-0.76C269.96,345.35,271.75,342.07,273.54,338.8z M422.44,392.46
		c0,10.4,1.77,20.84-0.46,30.33c-2.7,11.51-8.54,22.34-13.48,33.25c-3.47,7.65-3.4,15.48-3.25,23.88c0.69-0.58,1.09-0.75,1.13-0.97
		c2.02-12.59,8.26-23.03,15.71-33.15c3.65-4.95,6.4-11,7.92-16.96C433.32,415.89,429.67,403.92,422.44,392.46z M259.27,392.7
		c-0.21-0.09-0.42-0.17-0.62-0.26c-2.44,8.2-5.6,16.27-7.02,24.64c-0.8,4.7,0.58,10.16,2.27,14.8c2.02,5.52,5.38,10.55,8.25,15.74
		c3.28,5.92,7.09,11.59,9.86,17.73c2.01,4.46,2.71,9.52,4.22,15.15c0.39-1.58,0.74-2.44,0.79-3.32c0.82-14.68-4.86-27.52-11.1-40.31
		c-2.73-5.59-5.63-11.52-6.37-17.54C258.47,410.57,259.27,401.59,259.27,392.7z M267.82,296.42c-0.13,0.26-0.25,0.52-0.38,0.78
		c2.18,0.55,4.34,1.51,6.53,1.58c22.59,0.75,45.17,1.8,67.77,1.86c21.26,0.05,42.53-0.91,63.79-1.62c3.17-0.11,6.31-1.24,9.46-1.9
		c-0.06-0.23-0.12-0.47-0.18-0.7C365.81,296.42,316.82,296.42,267.82,296.42z M266.73,309.95c-0.05,0.58-0.11,1.17-0.16,1.75
		c0.85,0.23,1.69,0.61,2.55,0.67c18.2,1.17,36.42,3.36,54.61,3.22c29.83-0.23,59.65-1.98,89.47-3.12c1.27-0.05,2.53-0.5,3.8-0.76
		c-0.07-0.59-0.14-1.18-0.22-1.76C366.76,313.6,316.74,313.54,266.73,309.95z M244.85,348.41c5.06-15.35,7.48-19.33,34.05-31.03
		c-10.83-1.72-19.39,3.36-27.7,9.14c1.37-1.97,2.74-3.93,4.61-6.62C244.25,324.52,238.35,341.19,244.85,348.41z M402.68,317.52
		c17.02,5.68,31.71,12.65,35.05,32.54c6.81-12.08-2.15-29.03-9.88-29.27c1.32,1.98,2.78,4.16,4.25,6.35
		C423.45,320.99,414.92,315.73,402.68,317.52z M341.48,266.16c-0.39-0.06-0.79-0.12-1.18-0.19c-1.14,5.04-2.11,10.14-3.46,15.12
		c-1.47,5.39-2.23,10.34,5.46,13.21c1.14-2.51,3.77-5.51,3.48-8.19C345.05,279.39,343,272.8,341.48,266.16z M355.51,399.15
		c-2.97-3.86-25.52-3.76-28.28,0.11c7.45-0.95,10.76,2.69,10.76,11.02c2.95-1.54,6.51-2.37,6.69-3.67
		C345.56,400.29,349.78,399.28,355.51,399.15z M304.76,294.09c3.24-3.19,6.48-6.41,1.74-10.92c-0.29-0.28-0.12-0.99-0.33-1.43
		c-2.61-5.36-5.25-10.71-7.88-16.06c-0.71,4.75-0.33,9.15-0.11,13.57C298.45,284.97,297.16,291.28,304.76,294.09z M385.06,265.5
		c-0.35-0.1-0.7-0.2-1.05-0.3c-2.86,6.2-5.45,12.54-8.68,18.54c-2.49,4.63-0.91,7.57,2.84,10.71c1.83-2.09,4.7-3.85,5.01-5.99
		C384.28,280.88,384.5,273.16,385.06,265.5z M368.46,434.06c-1.73,0.52-3.78,1.92-5.14,1.42c-5.14-1.87-10.27-3.98-14.98-6.73
		c-3.73-2.18-9.34-2.19-13.3,0.12c-6.27,3.66-12.52,8.1-21.25,5.33c0.82,1.16,1.33,2.45,1.78,2.43c5.05-0.22,11.47,1.18,14.86-1.38
		c8.1-6.13,14.66-5.57,22.23,0.13C356.83,438.52,365.58,437.83,368.46,434.06z M428.85,364.02c2.11,5.17,4.08,10.41,6.43,15.48
		c0.67,1.45,2.27,3.07,3.73,3.42c3.8,0.91,7.75,1.15,11.64,1.66c0.05-0.43,0.11-0.87,0.16-1.3c-1.59-0.95-3.19-1.9-4.67-2.78
		c1.08-0.5,2.28-1.05,4.05-1.86C440.61,376.35,433.4,372.15,428.85,364.02z M231.66,383.42c0.12,0.44,0.24,0.88,0.36,1.31
		c4.01-0.58,8.14-0.75,11.98-1.87c2.66-0.78,2.93-3.63,2.69-6.3c-0.05-0.51,1.22-1.03,1.6-1.7c1.85-3.27,3.61-6.6,5.4-9.9
		c-0.49-0.34-0.97-0.68-1.46-1.02c-3.55,8.88-11.02,12.43-20.11,14.9c1.86,0.73,3.11,1.23,4.1,1.62
		C234.78,381.39,233.22,382.41,231.66,383.42z M226.99,421.21c-6.33,3.93-7.04,8.69-2.59,13.97
		C225.2,430.87,226.08,426.12,226.99,421.21z M455.64,421.5c0.71,4.44,1.48,9.3,2.22,13.89
		C462.31,429.67,461.18,423.73,455.64,421.5z M340.86,312.19c1.82-2.35,3.41-3.52,3.43-4.7c0.01-0.9-1.96-2.52-3.09-2.55
		c-1.2-0.03-3.38,1.37-3.44,2.26C337.68,308.4,339.21,309.71,340.86,312.19z M294.32,305.62c-2.07-1.58-3.29-3.24-4.39-3.16
		c-1.31,0.09-2.52,1.67-3.78,2.6c1.03,0.97,1.98,2.6,3.12,2.74C290.52,307.95,291.93,306.73,294.32,305.62z M359.15,304.05
		c-0.73-0.47-1.47-0.94-2.2-1.41c-0.58,1.46-1.92,3.16-1.55,4.3c0.43,1.32,2.27,2.7,3.7,2.98c0.76,0.15,2.4-1.87,2.77-3.16
		C362.04,306.17,360.13,304.98,359.15,304.05z M327.23,306.76c-0.14-0.63-0.28-1.26-0.41-1.89c-2.08,0.27-4.16,0.54-6.24,0.82
		c0.73,1.63,1.46,3.25,2.51,5.61C324.98,309.23,326.1,307.99,327.23,306.76z M247.7,250.02c-0.02,0.97-0.05,1.93-0.07,2.9
		c1.78,0.22,3.56,0.45,5.34,0.67c0.12-1.19,0.24-2.38,0.36-3.57C251.45,250.02,249.58,250.02,247.7,250.02z M411.86,299.79
		c-1.46,2.01-2.91,3.15-2.75,3.97c0.23,1.2,1.63,2.18,2.53,3.25c0.86-0.94,2.26-1.81,2.41-2.86
		C414.19,303.16,413.03,301.98,411.86,299.79z M271.07,308c1.11-1.92,2.35-3.09,2.23-4.11c-0.12-0.98-1.64-1.78-2.54-2.67
		c-0.89,0.95-2.42,1.86-2.48,2.86C268.22,305.07,269.66,306.14,271.07,308z M310.43,306.67c-0.03-0.48-0.05-0.96-0.08-1.45
		c-1.21-0.43-2.47-1.31-3.61-1.17c-1.22,0.15-2.32,1.26-3.47,1.96c1.23,0.78,2.41,2.01,3.72,2.2
		C308.05,308.36,309.28,307.23,310.43,306.67z M372.33,304.74c-0.01,0.95-0.03,1.9-0.04,2.85c2.16,0,4.32,0.04,6.47-0.12
		c0.09-0.01,0.06-1.78,0.08-2.73C376.67,304.74,374.5,304.74,372.33,304.74z M389.69,304.31c0.14,0.95,0.29,1.91,0.43,2.86
		c1.89-0.09,3.78-0.17,5.66-0.26c-0.47-1.31-0.8-3.65-1.44-3.73C392.87,302.98,391.25,303.86,389.69,304.31z"/>
	<path class="st0" d="M293.44,348.89c4.74,0.43,11.18,1.02,17.86,1.62c-0.03-0.28-0.16-1.6-0.33-3.16
		c6.86,5.83,12.91,15.27,24.11,5.87c0.13,0.76,0.26,1.53,0.4,2.29c-3.48,1.79-6.97,3.59-10.51,5.41c-1.71,4.51-3.58,9.44-5.7,15.01
		c-1.2-4.41-1.94-7.94-3.21-11.27c-0.39-1.02-2.43-2.31-3.35-2.07c-5.19,1.37-9.04-0.54-12.17-4.38
		C297.92,355,295.51,351.61,293.44,348.89z M302.16,352.77c-0.35,0.41-0.71,0.82-1.06,1.23c1.5,1.63,2.72,4.1,4.55,4.68
		c2.44,0.76,5.33,0.05,8.03-0.03c0.12-0.86,0.25-1.71,0.37-2.57C308.03,360.81,305.96,354.35,302.16,352.77z"/>
	<path class="st0" d="M387.69,348.97c-2.08,2.94-4.85,7.8-8.61,11.72c-1.65,1.72-5.5,2.45-8.01,1.95c-3.87-0.77-5.03,0.98-5.32,3.87
		c-0.34,3.39-0.08,6.85-1.24,10.83c-2.43-5.56-4.86-11.11-7.61-17.42c-2.38-1.28-7.59-0.08-8.9-6.43
		c10.42,8.68,16.15,0.36,22.92-5.68c0,1.74,0,2.76,0,2.77C377.68,349.94,384.29,349.3,387.69,348.97z M381.4,353.85
		c-0.44-0.59-0.89-1.18-1.33-1.77c-2.47,5.6-6.63,6.35-11.57,5.67c3.04,1.09,6.17,1.81,8.89,1.04
		C379.06,358.32,380.08,355.57,381.4,353.85z"/>
</g>
</svg>
