<?xml version="1.0" encoding="utf-8"?>
<!-- Generator: Adobe Illustrator 27.9.0, SVG Export Plug-In . SVG Version: 6.00 Build 0)  -->
<svg version="1.1" id="Layer_1" xmlns="http://www.w3.org/2000/svg" xmlns:xlink="http://www.w3.org/1999/xlink" x="0px" y="0px"
	 viewBox="0 0 1741.6 1389.9" style="enable-background:new 0 0 1741.6 1389.9;" xml:space="preserve">
<style type="text/css">
	.st0{fill:#BF2D00;}
	.st1{fill:#CEA600;}
	.st2{fill:#210800;}
	.st3{fill:#FFFFFF;}
</style>
<path class="st0" d="M821.9,521.7c68.2,0,136.4,0.2,204.6-0.2c8.5,0,12.8,1.8,14.9,10.6c4.1,17.5,16.4,30.5,26.5,44.7
	c36.1,50.7,68.8,103,86,163.8c56.2,198.3-62.2,407.6-261.7,461.9c-21.9,6-43.6,11.7-61.1,27.3c-4.2,3.7-7.7,4-11.8-0.1
	c-15.2-15-34.6-21.1-54.7-26.3c-138.1-36-227.9-123.9-269.8-258.9c-31-100-14.7-196.6,34.3-288.2c17.9-33.6,40.7-64,62.4-95.1
	c4.7-6.7,11-13.3,11.2-21.5c0.4-17,9.7-18.3,23.8-18.1c65.1,0.7,130.3,0.3,195.4,0.3C821.9,521.8,821.9,521.7,821.9,521.7
	L821.9,521.7z M822.6,548.7C822.6,548.7,822.6,548.6,822.6,548.7c-57.4-0.1-114.8-0.1-172.3,0c-6.4,0-12.4-0.8-17.2,6.7
	c-14.1,22-29.3,43.2-44.3,64.6c-41.2,59-69.8,123.3-74.9,195.7c-8.2,116.7,32.7,213.9,121.9,290c117,99.8,286.1,92.6,394.7-16.2
	c104.5-104.6,132.9-252.5,74.9-388.6c-21.9-51.5-55.6-95.4-88.4-140c-6.4-8.7-12.6-12.6-23.8-12.5
	C936.4,549,879.5,548.7,822.6,548.7L822.6,548.7z"/>
<path class="st1" d="M1040.7,373.2c-38.3,23.5-74,45.6-109.8,67.3c-21.6,13-21.9,12.9-35.5-7.8c-23.3-35.6-44.2-72.6-65.2-109.6
	c-1.9-3.3-1.5-9.3-6.6-9.4c-4.9,0-5.2,5.6-7.1,9c-23.7,41.9-48.2,83.4-75,123.4c-4.9,7.3-7.7,9.4-16.4,3.8
	c-38.4-24.5-77.2-48.1-117.5-77.8c9.5,30.3,17.2,56.5,26,82.4c4.2,12.1,2.9,15.5-11.4,17c-18.3,1.8-24.4-4.2-28-21.3
	c-6.6-31.5-16.2-62.5-24-93.8c-2.1-8.6-4.7-12.8-15-12.6c-18.5,0.3-30.8-12.3-33.7-31.3c-2.8-18.8,7-36,23.8-41.8
	c18.6-6.4,38.2,0,47.1,15.4c3.9,6.8,7.8,15.1,5.8,21.9c-4.7,15.7,4.8,21.4,15.1,28.5c33.7,23.3,67.1,47.1,100.4,71
	c6.3,4.5,9.7,6.5,15.3-1.7c22-32.1,42.6-65.1,62.6-98.5c3.5-5.9,3.9-10-0.3-16.4c-11-16.9-7.4-39.8,6.9-51.7
	c14.2-11.9,35.2-12.4,49.8-1.2c15.4,11.8,19.6,32.6,8.4,51c-5,8.2-3.8,13.8,0.7,20.8c20.1,31.6,40.2,63.1,59.8,95
	c4.2,6.8,7,8.1,14,3.2c37-25.8,74.1-51.4,111.7-76.4c8.4-5.6,10.8-11.3,10-21.3c-1.6-20,9.6-35.5,26.4-40c18.8-5,35.4,1,44,16.1
	c13.7,24.2-1.8,55.6-29.2,57.4c-9.7,0.6-13.5,4.3-15.8,12.8c-9.2,34.1-18.6,68.1-27.9,102.2c-2.6,9.5-31.6,17.8-38.2,10.4
	c-3.6-4,0.4-8.6,1.9-12.7c1.7-4.8,3.8-9.5,5.4-14.4C1026,420.3,1032.8,398.4,1040.7,373.2L1040.7,373.2z"/>
<path class="st2" d="M973.5,448c14.4,1,25.8-1,36.5-9.5c0,9.3-5,16.9-4.2,25.7c0.8,9.7-7.7,5.8-12.2,5.8
	c-62,0.3-124.1,0.2-186.1,0.2c-51.3,0-102.5,0-153.8,0c-11.8,0-18.9-12.2-13.2-22.3c2.3-4.1,5.2-1.8,7.7-0.7
	c6.4,2.7,12.7,1.8,20.6,0.5c-13.4-18.7-40.6-23.7-44.2-51c32.3,21.8,63.4,42.9,96.7,60.6c14.7,7.8,21.3,3.2,29.9-8.4
	c27.1-36.2,48.8-75.7,72.1-117.3c15.5,27.1,30.3,52.9,45.2,78.7c3.2,5.5-2.2,5.8-4.4,7.7c-10.7,9.5-22.1,18.3-32.4,28.3
	c-6.1,6-9.5,4.6-14.9-0.8c-9.1-9-19.2-17-28.7-25.5c-2.5-2.2-5.2-4.1-8-1.6c-3.5,3-2.2,6.8,0.8,9.3c12.9,10.9,26,21.5,39.1,32.2
	c5,4.1,8.7-0.3,12.2-2.8c15.2-11.2,30.5-22.4,43-37.1c8.5,9.5,14.2,20.5,19.9,31.2c5.8,10.8,12.8,12.6,23.7,7.1
	c31.5-16.1,60.9-35.7,90.8-54.5c4.3-2.7,8.4-5.7,13.7-9.4C1021.5,426.6,988.6,427,973.5,448L973.5,448z M823,359.8
	c-8.2,13.9-15.6,27.2-23.7,40c-2.9,4.7-3.3,8,0.9,11.9c7.1,6.6,14.1,13.3,20.9,20.2c3.5,3.5,5.2,2.1,8.3-1c16.4-16.6,18-34.6,4.8-54
	C830.6,371.5,827,366,823,359.8L823,359.8z"/>
<path class="st1" d="M822.1,480.7c69.2,0,138.4-0.2,207.6,0.3c6.2,0,17.5-6.7,17.5,8.9c0,12-1.9,17.8-16.7,17.7
	c-139.5-0.6-278.9-0.5-418.4,0.1c-14.4,0.1-13.5-7-14.5-16.8c-1.3-13.3,7.6-9,13.8-9.1c70.2-0.1,140.5-0.1,210.7-0.1
	C822.1,481.5,822.1,481.1,822.1,480.7L822.1,480.7z"/>
<path class="st0" d="M1102.6,789.2c-12.3-82.2-57.6-146.7-106.1-210c-3.8-5-8.3-6.5-14.5-6.5c-53.3,0.2-106.7,0.1-160,0.1v0.6
	c-41.5,0-83.1,1.6-124.5-0.5c-31.2-1.6-55.2,4.9-68.5,35.8c-3.6,8.3-11,14.8-16,22.5c-36.2,56-65.5,114.5-69.8,183
	c-7.8,126,39.3,225.4,145,294.4c48.1,31.4,102.5,47.2,160.9,39.8c87.2-11,154.4-55.1,202.5-127.8
	C1098.1,950.3,1115.2,873.4,1102.6,789.2L1102.6,789.2z M1011.3,687c0.2-22,0.7-43.9,1-65.8c0-0.9,0.7-1.7,2.8-6.5
	c16.4,30.5,44.2,52.1,44,87.9h-47.8C1011.2,698.4,1011.3,693.3,1011.3,687L1011.3,687z M906.8,681.1c0-10.7,0-21.5,0-32.2h0.3
	c0-19.4,0.2-38.8-0.1-58.3c-0.1-7.1,2-10.7,9.5-9.8c0.5,0.1,1,0,1.5,0c27.4-1.2,41.1,12.1,41.2,39.8c0.1,27.3,0,54.6,0.5,81.9h-52.4
	C906.8,697.1,906.8,690.1,906.8,681.1L906.8,681.1z M794.2,1002c0.1,12.6,5.1,21.6,18.7,24.1c6.4,1.2,14,1.9,11.8,11.9
	c-2,8.9-8.3,12.7-16.6,13.1c-19.8,0.9-40.5-16.8-42.2-37.1c-1-11.7-0.2-23.5-0.2-35.3h-0.1c0-5.6,0-11.2,0-16.9
	c0.2-30.7,16.6-47.1,47.8-48.2c20.8-0.7,41.1,0,57.7,15c3.4,3.1,6.6,6.4,9.4,9.9c2.8,3.5,2.9,7.5,0,11.3c-4.1,5.3-7.3,0.9-10.2-1.3
	c-11.5-8.8-23.7-16-38.4-18.2c-23.1-3.5-36.3,6.8-37.3,30.2C793.9,974.3,794.1,988.2,794.2,1002L794.2,1002z M850.7,796.7
	c-0.4,33.7-0.9,67.5-0.7,101.2c0.1,10.2-1.7,15.4-13.4,12.7c-5.4-1.3-11.2-0.8-16.8-0.8c-20.2,0-20.1,0-20.1-19.5
	c0-18.4,0-36.8,0-55.2h0.1c0-20.6,0.3-41.2-0.2-61.8h50.8C850.9,779,850.9,786.6,850.7,796.7z M811.8,580.5
	c38.1-0.8,38-1.1,38.2,36.3c0.1,28.6,0.1,57.2,0.6,85.7H800c-0.3-5-0.3-11.3-0.3-19.4c0.1-10.8,0-21.5,0-32.2h0
	c0-19.5,0.5-38.9-0.2-58.4C799.2,582.8,802.6,580.7,811.8,580.5L811.8,580.5z M695.3,580.8c0.5,0,1,0,1.5,0
	c28.9-1.9,43.5,11.5,43.7,40.1c0.2,27.2,0,54.4,0.4,81.6h-53.2c-0.4-5.6-0.3-12.8-0.1-22.1c0.2-10.8,0-21.5,0-32.2h-0.4
	c0-19.5,0.3-38.9-0.2-58.3C686.9,583.1,688.7,580.3,695.3,580.8z M593.8,676.2c10-20.8,23.9-39.1,39.3-60.6c3.1,31,3.3,59.1,3.4,87
	h-48.6C587.5,693.8,589.8,684.5,593.8,676.2L593.8,676.2z M636.6,795.2c-0.2,82-0.3,164-0.5,246c0,4.3,1.7,9.2-3.5,14.3
	c-22.3-27.3-46.5-51.2-45-91.6c2.3-63,0.6-126.1,0.1-189.1c0-0.6,0-1.1,0-1.6H636C636.6,778.5,636.6,785.6,636.6,795.2z
	 M849.1,1120.1c0,16.1-8.3,23.8-24.7,23.2c-5.1-0.2-10.2-0.9-15.2-0.9c-7.1,0-10-3.1-9.8-10.2c0.3-9.2-2.6-19.4,0.6-27.2
	c4.1-9.9,16.1-1.5,23.9-4.9c0.5-0.2,1-0.2,1.5-0.3C841.2,1097.5,849.1,1104.3,849.1,1120.1z M854.3,1088.3
	c-36.1,15.9-75.7,8.2-101.5-19.7c-3.3-3.6-6.4-7.4-12.2-14.2c0,21.9-0.1,40.1,0,58.2c0.1,9.2-0.3,14.2-12.6,9
	c-40.2-17.1-40.5-16.5-40.5-59.8c-0.1-95.4,0-190.7-0.8-286.1c0-0.9,0-1.8,0-2.6h53c0.9,5.5,0.9,13.1,1,23.8
	c0.2,46.2,0,92.3,0.8,138.4c0.2,13.4-6.2,24.7-9,37c-11,48.5,16.6,95.4,64.6,108.2c17.9,4.7,34.8,3.3,48.4-10.8
	c14.2-14.8,15.1-33.1,11.1-51.8c-2.5-12-12.6-16.4-23-20.3c-5.7-2.1-15.2-3.3-11.9-12.5c3-8.3,9.5-14.8,20-13.5
	c24,2.9,42.5,22.1,44.3,45.8C889.1,1059.4,881.5,1076.3,854.3,1088.3z M937.1,1115c-9.1,3.1-17.8,7.4-29.5,12.3
	c0.5-27-3.5-51.2,5.6-75.4c7-18.6,5.7-38.5-1.4-57.3c-4.1-10.8-5.5-21.8-5.4-33.1c0.2-62.6,0.7-125.2,0.4-187.8v-0.5h51.8
	c1,5.7,0.9,13.9,0.9,25.6c-0.2,93.9-0.8,187.8,0.1,281.6C959.7,1098.8,954,1109.3,937.1,1115L937.1,1115z M1059.3,794.1
	c-0.2,55.4-1.6,110.8-0.2,166.1c0.7,27.8-5.5,51.4-24.5,71.7c-6.9,7.4-12.9,15.7-19.4,23.5c-1.3-0.4-2.7-0.7-4.1-1.1
	c0-8.6,0-17.2,0-25.8c-0.3-84.1-0.3-168.2-1.1-252.3c0-1,0-2,0-2.9h48.6C1059.4,778.1,1059.3,784.8,1059.3,794.1z"/>
<g>
	<path class="st3" d="M642,759.3h-9.5v-40.8h9.5V759.3L642,759.3z M663.1,759.3h-10.6l-7.9-15.7c-0.4-0.9-0.6-1.9-0.6-3
		c0-1.3,0.5-2.3,1.4-3s2.1-1,3.4-1c1,0,1.8,0.2,2.4,0.7s1.2,1.2,1.8,2.2L663.1,759.3L663.1,759.3z M653.7,735.3H644l8.6-16.8h10.1
		L653.7,735.3L653.7,735.3z"/>
	<path class="st3" d="M676.3,759.3h-9.5v-40.8h9.5V759.3L676.3,759.3z"/>
	<path class="st3" d="M692.2,759.3h-8.9v-35.4l8.9,17.4V759.3L692.2,759.3z M693.7,718.6l17.7,35.1c0.5,1,0.7,1.8,0.7,2.5
		c0,1.3-0.5,2.3-1.4,3s-2,1-3.3,1c-1.8,0-3.1-0.9-4-2.7l-19.8-39.1H693.7z M703.7,718.6h8.9v32.2l-8.9-17.9V718.6L703.7,718.6z"/>
	<path class="st3" d="M718.9,743.8v-9.6c0-2.3,0.3-4.4,1-6.3s1.6-3.7,2.8-5.2c1.2-1.5,2.8-2.7,4.8-3.5s4.2-1.3,6.7-1.3v8.7
		c-1.6,0-2.8,0.7-3.9,2.1c-1,1.4-1.5,3.5-1.5,6.4v7.9c0,2.9,0.5,5,1.5,6.4s2.3,2.1,3.9,2.1v8.7c-2.5,0-4.7-0.4-6.7-1.3
		c-2-0.9-3.5-2-4.8-3.5c-1.2-1.5-2.2-3.2-2.8-5.2S718.9,746,718.9,743.8L718.9,743.8z M750.4,736.4v8.8c0,4.6-1.2,8.3-3.5,10.9
		s-5.8,4-10.5,4v-8.7c1.4,0,2.6-0.4,3.5-1.3c0.9-0.8,1.4-2.1,1.4-3.8V745h-5.5v-8.6L750.4,736.4L750.4,736.4z M749.2,725l-7.1,4.8
		c-1-2.2-2.9-3.3-5.7-3.3v-8.7C742.9,717.8,747.1,720.2,749.2,725L749.2,725z"/>
	<path class="st3" d="M765.8,759.3h-9.5v-40.8h9.5V759.3L765.8,759.3z M786.9,759.3h-10.6l-7.9-15.7c-0.4-0.9-0.6-1.9-0.6-3
		c0-1.3,0.5-2.3,1.4-3s2.1-1,3.4-1c1,0,1.8,0.2,2.4,0.7s1.2,1.2,1.8,2.2L786.9,759.3L786.9,759.3z M777.5,735.3h-9.7l8.6-16.8h10.1
		L777.5,735.3L777.5,735.3z"/>
	<path class="st3" d="M801.3,742.7h5.4l1.8,8.4h-9.1l-1.9,8.3h-9.8l7.7-30.2h9L801.3,742.7L801.3,742.7z M812.8,718.6l9.9,40.8h-9.7
		l-7.3-32.4H799c-1.5,0-2.7-0.4-3.5-1.1s-1.2-1.8-1.2-3.1s0.4-2.3,1.2-3.1s2-1.1,3.5-1.1L812.8,718.6L812.8,718.6z"/>
	<path class="st3" d="M836.3,759.3h-9.5v-40.8h9.5V759.3L836.3,759.3z"/>
	<path class="st3" d="M850.1,731l-8.7-1.7c0.2-3.2,1.4-6,3.6-8.1c2.2-2.2,5.1-3.3,8.6-3.3v8.5C851.4,726.7,850.2,728.2,850.1,731
		L850.1,731z M864.1,759.3h-21.5v-8.4h21.5c1.4,0,2.5,0.4,3.4,1.1s1.2,1.8,1.2,3.1s-0.4,2.3-1.2,3.1S865.5,759.3,864.1,759.3z
		 M855.3,748.8h-12.7c3.7-3.2,6.6-5.7,8.7-7.6c2.1-1.9,3.7-3.5,4.9-4.9s2-2.5,2.4-3.3c0.3-0.8,0.5-1.7,0.5-2.7c0-1.1-0.3-2-0.8-2.7
		c-0.6-0.7-1.4-1.1-2.4-1.2v-8.5c3.8,0,6.8,1.1,9.1,3.4c2.3,2.2,3.5,5,3.5,8.4c0,1.2-0.1,2.4-0.2,3.3c-0.2,1-0.5,2-0.9,3
		c-0.5,1-1,1.9-1.5,2.7c-0.6,0.8-1.4,1.8-2.5,2.9c-1.1,1.2-2.2,2.2-3.4,3.2C858.8,745.8,857.2,747.1,855.3,748.8L855.3,748.8z"/>
	<path class="st3" d="M884.8,751.4v8.7c-3.6,0-6.6-0.9-8.9-2.8s-3.6-4.4-3.9-7.5l9.1-2.3c0,1.1,0.3,2,1,2.8S883.7,751.4,884.8,751.4
		L884.8,751.4z M894.8,727h-20.6v-8.4h20.6c1.5,0,2.6,0.4,3.4,1.1s1.2,1.8,1.2,3.1s-0.4,2.3-1.2,3
		C897.5,726.6,896.3,726.9,894.8,727L894.8,727z M887.2,760.1v-8.7c1.2,0,2.1-0.4,2.7-1.2s1-1.9,1-3.2c0-1.7-0.5-3-1.4-3.8
		s-2.5-1.3-4.6-1.3h-10.7v-12.7h9.6v4.3h2.5c4.8,0,8.4,1.2,10.6,3.5s3.4,5.6,3.4,9.8s-1.2,7.3-3.5,9.7
		C894.5,758.8,891.3,760,887.2,760.1L887.2,760.1z"/>
	<path class="st3" d="M918.1,751.2v8.9c-4.2,0-7.6-1.1-10.1-3.3c-2.5-2.2-3.8-5.2-3.8-9v-2.8c0-2.3,0.4-4.5,1.1-6.5
		c0.8-2,1.8-4.2,3.2-6.3l8.5-13.5h11.3l-11,18c-2.1,3.4-3.1,6.3-3.1,8.6v0.8c0,1.5,0.3,2.7,1,3.7S916.8,751.2,918.1,751.2
		L918.1,751.2z M920.4,760.1v-8.9c1.2,0,2.1-0.5,2.7-1.5c0.7-1,1-2.2,1-3.7v-1.5c0-1.4-0.5-2.6-1.5-3.5c-1-0.9-2.5-1.4-4.3-1.4
		l4.5-7.4c3.2,0,5.8,1.1,7.9,3.3s3.1,5.2,3.1,8.8v3.5c0,3.5-1.2,6.4-3.7,8.8C927.5,758.9,924.3,760.1,920.4,760.1L920.4,760.1z"/>
	<path class="st3" d="M953.2,751.4v8.6c-2.1,0-4-0.3-5.7-0.9c-1.7-0.6-3-1.4-4.1-2.4c-1.1-1-2-2.3-2.7-3.7s-1.2-3-1.5-4.5
		s-0.4-3.3-0.4-5.2v-24.8h9.5v24.4c0,3.1,0.4,5.3,1.3,6.6C950.5,750.8,951.7,751.4,953.2,751.4L953.2,751.4z M955.6,760.1v-8.6
		c1.6,0,2.8-0.7,3.6-2c0.8-1.3,1.3-3.5,1.3-6.6v-24.4h9.5v24.8c0,2.3-0.3,4.5-0.8,6.4s-1.3,3.7-2.4,5.3c-1.1,1.6-2.6,2.8-4.5,3.7
		S958.2,760.1,955.6,760.1L955.6,760.1z"/>
	<path class="st3" d="M975.8,743.8v-9.6c0-2.3,0.3-4.4,1-6.3s1.6-3.7,2.8-5.2c1.2-1.5,2.8-2.7,4.8-3.5s4.2-1.3,6.7-1.3v8.7
		c-1.6,0-2.8,0.7-3.9,2.1c-1,1.4-1.5,3.5-1.5,6.4v7.9c0,2.9,0.5,5,1.5,6.4s2.3,2.1,3.9,2.1v8.7c-2.5,0-4.7-0.4-6.7-1.3
		c-2-0.9-3.5-2-4.8-3.5c-1.2-1.5-2.2-3.2-2.8-5.2S975.8,746,975.8,743.8L975.8,743.8z M1007.4,736.4v8.8c0,4.6-1.2,8.3-3.5,10.9
		s-5.8,4-10.5,4v-8.7c1.4,0,2.6-0.4,3.5-1.3c0.9-0.8,1.4-2.1,1.4-3.8V745h-5.5v-8.6L1007.4,736.4L1007.4,736.4z M1006.2,725
		l-7.1,4.8c-1-2.2-2.9-3.3-5.7-3.3v-8.7C999.9,717.8,1004.1,720.2,1006.2,725L1006.2,725z"/>
</g>
</svg>
