<?xml version="1.0" encoding="utf-8"?>
<!-- Generator: Adobe Illustrator 27.9.0, SVG Export Plug-In . SVG Version: 6.00 Build 0)  -->
<svg version="1.1" id="Layer_1" xmlns="http://www.w3.org/2000/svg" xmlns:xlink="http://www.w3.org/1999/xlink" x="0px" y="0px"
	 viewBox="0 0 1741.6 1389.9" style="enable-background:new 0 0 1741.6 1389.9;" xml:space="preserve">
<style type="text/css">
	.st0{fill:#FFFFFF;}
	.st1{fill:#FFB600;}
	.st2{enable-background:new    ;}
</style>
<g>
	<path class="st0" d="M906.1,291.9c-25.9,110.2-25.9,111.7-2.1,43.4l21.3-61.1l33.1,117.4c18.1,65.1,34.4,120.1,36.4,122.6
		c2.1,2.8,55.7,6.6,118.6,8.4l114.2,4l-77.9,55.7c-43.4,31-79.2,56.3-80.4,57.2c-1.2,0.6,2.1,7.8,7.2,15l9.1,14.7l115.7-85.5
		l116.3-85.5l-149.9-1.8l-149.3-1.2l-37-116.8c-21-63.8-40.4-125.2-43.7-135.8c-3.4-10.6-7.2-21.3-9.7-23.5
		C925.8,216,916.1,249.1,906.1,291.9L906.1,291.9z M583,371.1c-86.1,28.1-139.5,90.1-155.7,178.9c-17.3,97.3,37.7,199.9,129.3,242.1
		c40.4,19,110.2,23.5,149.3,10.3c14.7-5.1,27.5-7.8,28.5-6.6c1.2,0.6-9.7,37.6-24.1,81.6c-14.1,44.3-24.7,81-23.5,81.9
		c2.1,2.8,237.4-170.5,239.4-175.8c0.6-2.8-7.2-7.2-17.5-10.6c-18.1-5.7-21.3-4-80.4,38.2c-33.8,24.1-62.9,44-65.1,44.3
		c-1.8,0,2.8-20.1,10.3-45.4c10.6-33.1,21.3-53.9,40-77c41.6-51.2,48.8-72.6,49.4-144.5c0-59.1-1.2-64.1-18.7-99.4
		C796,390.4,681.2,338.6,583,371.1L583,371.1z M688.4,391.1c46,11.8,90.4,38.2,83.8,48.8c-5.1,8.4-31.6,5.7-62.9-6.3
		c-16.3-6.3-33.8-11.2-38.8-11.2c-5.1,0-20.7-6.6-35-15c-21.9-12.9-24.1-15-14.7-19C637.8,382,657.7,382.6,688.4,391.1z
		 M573.3,405.5c-10.6,6.3-21.9,10.6-25.3,10.6c-2.8,0,3.4-4.4,14.1-10.6c10.9-6,22.6-10.6,25.3-10.6
		C590.8,394.9,583.9,399.5,573.3,405.5z M713.7,443.1c27.5,11.2,42.2,26.5,55.7,58.5c11.2,25.3,11.2,28.5,3.4,44.3
		c-16.3,31-42.2,56.3-58.5,56.3c-23.5,0-70.7-15.7-80.4-26.5c-5.1-5.7-15-29.2-23.2-51.9c-16.3-48.5-15-53.9,19.6-79.2
		C655.9,426.2,672.2,426.2,713.7,443.1L713.7,443.1z M521,448.7c-12.3,28.1-57.8,99.4-65.1,101.7c-15.7,5.1,14.7-66.9,41.6-99.4
		C517,428,531.3,426.8,521,448.7L521,448.7z M585.8,483.1c7.2,7.8,32.5,81.6,32.5,96.1c0,7.8-9.1,28.1-19.6,44.3
		c-22.6,32.5-35.9,36.4-74.1,20.7c-31-12.9-40-23.5-47.3-56.9c-6.3-27.5-5.7-31.6,7.8-59.7c7.8-16.3,20.1-35.9,27.2-43.4
		c10.6-11.8,15.7-12.3,41-9.1C568.9,477.4,583.3,480.7,585.8,483.1z M810.4,546.6c26.5,14.1,35.9,83.8,16.3,125.8
		c-15,33.1-35.6,50-55.1,45.4c-35.9-9.1-41-16.9-41-61.1c0-41,0-41.6,28.5-78.6c16.3-20.7,31.6-37.6,34.4-37.6
		S803.8,543.4,810.4,546.6L810.4,546.6z M841.4,566.9c-1.8,5.7-2.8,2.1-2.8-6.6c0-9.7,1.2-13.5,2.8-10.3
		C842.6,553.8,842.6,561.7,841.4,566.9z M537.3,657c24.1,7.2,35.9,15.7,60.8,44.3l31,35L616.8,755c-15,22.6-30.4,25.9-56.9,13.5
		c-50.6-24.1-83.2-70.7-74.1-106.3C490.3,644.2,497.5,643.9,537.3,657z M474.4,678.6c1.8,4.4,1.2,6.6-2.1,5.1
		c-3.4-1.8-5.7-5.7-5.7-9.1C466.6,666.8,470.4,668.6,474.4,678.6z M758.2,720.8c26.5,9.7,20.1,21.9-23.2,44
		c-28.1,14.1-46.6,19.6-76.4,21.9c-46,2.8-53.2-2.8-33.8-28.1c9.7-12.3,24.7-21.3,50-29.8C717.7,714,734.1,712.3,758.2,720.8z"/>
	<path class="st1" d="M875.2,469c44.3,42.2,96.1,101.1,111.4,127c2.1,4-10.6-2.1-28.5-14.7c-18.1-12.3-39.4-25.3-47.3-29.2
		c-15.7-7.2-17.5-9.7,29.8,29.2c23.2,19,78.6,82.5,91,105.1c2.8,4.4-2.1,2.1-11.2-4.4c-24.7-19-91-62.9-95.4-62.9
		c-2.1,0,11.2,11.2,29.8,25.3c42.8,31.9,90.4,83.8,122.6,131.6c25.9,40,55.7,101.7,48.5,101.7c-2.8,0-13.5-9.1-24.1-20.1
		c-28.5-29.8-87-68.1-133.6-86.4c-22.6-9.7-44-16.9-47.9-16.3c-3.4,0,5.1,4.4,19,10.6c68.6,27.5,143.9,85.5,191.2,145.5
		c16.9,21.9,31.6,37,32.5,34.4c1.2-2.8-4.4-31.6-12.3-64.7c-44-180.4-147.3-332.8-301.2-441.7C832.3,426.8,842,438.3,875.2,469
		L875.2,469z"/>
	<g class="st2">
		<path class="st0" d="M781.4,1069.4h-24.2v-77.2h24.2V1069.4z M808.7,1096.2H757v-21.5h51.7c3.7,0,6.6,0.9,8.7,2.9
			c2,2,3.1,4.6,3.1,7.8s-1.1,5.8-3.1,7.8C815.3,1095.2,812.5,1096.2,808.7,1096.2z"/>
		<path class="st0" d="M886.5,1013.7h-55.1v-21.5h55.1c3.7,0,6.6,0.9,8.7,2.9c2.1,2,3.1,4.6,3.1,7.8c0,3.2-1.1,5.8-3.1,7.8
			C893.1,1012.6,890.1,1013.7,886.5,1013.7z M855.8,1096.2h-24.2v-77h24.2V1096.2z M893.4,1054.4h-31.8v-21.5h31.8V1054.4z
			 M897.5,1096.2h-35.9v-21.5h35.9V1096.2z"/>
		<path class="st0" d="M939.7,1053.7h13.8l4.6,21.3h-23.2l-4.9,21.2h-24.9l19.5-77h23L939.7,1053.7z M968.9,992.2l25.2,104h-24.7
			l-18.7-82.5h-16.9c-3.8,0-6.8-0.9-8.9-2.9c-2-1.8-3.1-4.4-3.1-7.8s1.1-5.8,3.1-7.8c2-2,5.1-2.9,8.7-2.9H968.9z"/>
		<path class="st0" d="M1001.5,1056.5V1032c0-5.8,0.8-11.2,2.5-16.1c1.7-4.9,4-9.4,7.1-13.2c3.1-3.8,7.2-6.9,12.1-9.1
			c5.1-2.1,10.6-3.2,17-3.2v22.1c-4,0-7.2,1.7-9.8,5.2c-2.6,3.5-3.8,8.9-3.8,16.3v20.1c0,7.4,1.2,12.7,3.8,16.3
			c2.6,3.5,5.8,5.2,9.8,5.2v22.1c-6.3,0-12-1.1-17-3.2c-5.1-2.1-9.1-5.2-12.1-9.1c-3.1-3.8-5.5-8.3-7.1-13.2
			C1002.5,1067.6,1001.5,1062.2,1001.5,1056.5z M1082.1,1037.6v22.2c0,11.8-2.9,21-8.7,27.9c-5.8,6.8-14.7,10.1-26.7,10.1v-22.1
			c3.7,0,6.6-1.1,8.9-3.2s3.5-5.4,3.5-9.7v-3.4h-13.8v-22.1h36.8V1037.6z M1079,1008.8l-18.1,12.3c-2.6-5.7-7.4-8.4-14.4-8.4v-22.1
			C1062.8,990.4,1073.6,996.5,1079,1008.8z"/>
		<path class="st0" d="M1132.7,1076v22.1c-5.4,0-10.1-0.8-14.4-2.3c-4.3-1.5-7.7-3.5-10.4-6.1s-5.1-5.8-6.9-9.5
			c-1.8-3.7-3.1-7.5-3.8-11.7c-0.8-4-1.1-8.4-1.1-13.2v-63.2h24.4v62.1c0,7.8,1.1,13.5,3.2,16.7
			C1125.7,1074.5,1128.7,1076,1132.7,1076z M1138.9,1098.1V1076c4,0,7.1-1.7,9.2-4.9c2.1-3.4,3.2-8.9,3.2-16.7v-62.1h24.2v63.2
			c0,6-0.6,11.4-2,16.3c-1.4,4.9-3.4,9.4-6.1,13.5c-2.8,4-6.6,7.2-11.5,9.5S1145.3,1098.1,1138.9,1098.1z"/>
		<path class="st0" d="M1247.2,1013.7h-55.1v-21.5h55.1c3.7,0,6.6,0.9,8.7,2.9c2.1,2,3.1,4.6,3.1,7.8c0,3.2-1.1,5.8-3.1,7.8
			C1253.8,1012.6,1250.9,1013.7,1247.2,1013.7z M1216.3,1096.2h-24.2v-77h24.2V1096.2z M1254.1,1054.4h-31.8v-21.5h31.8V1054.4z
			 M1258.2,1096.2h-35.9v-21.5h35.9V1096.2z"/>
	</g>
	<g>
		<path class="st1" d="M515.9,1064.1h-2.1c-2.4,0-4.5-1-6.3-2.9c-1.8-1.9-2.7-4.4-2.7-7.6c0-3.1,0.8-5.7,2.5-7.6
			c1.7-1.9,3.8-2.8,6.2-2.8h1.1c3.1,0,5.6-1.1,7.6-3.4c2-2.3,3.1-5.6,3.1-10.1c0-4.2-1.1-7.6-3.3-10.1c-2.2-2.5-5.8-3.8-10.9-3.8
			h-33v-20.8h34.1c12,0,21.1,3,27.4,8.9c6.3,5.9,9.5,14.5,9.5,25.9c0,10.9-2.9,19.4-8.8,25.4
			C534.6,1061.2,526.5,1064.1,515.9,1064.1z M501.9,1096.2h-23.6v-75h23.6V1096.2z"/>
		<path class="st1" d="M603.6,1054.8h-3.3c-3.6,0-6.4-0.9-8.4-2.8c-2-1.9-3-4.4-3-7.6c0-3.1,1-5.7,3-7.6c2-1.9,4.8-2.8,8.4-2.8h1.8
			c6.1,0,9.1-2.9,9.1-8.8c0-6.1-3.7-9.2-11.2-9.2H561v-20.8h41.9c9.9,0,17.7,2.6,23.3,7.7c5.6,5.1,8.4,12.5,8.4,22.3
			c0,9.8-2.7,17.3-8.1,22.3C621.1,1052.3,613.5,1054.8,603.6,1054.8z M584.6,1096.2H561v-75h23.6V1096.2z M637.3,1096.2h-25.9
			l-17.3-37h24.7L637.3,1096.2z"/>
		<path class="st1" d="M681.1,1076.5v21.6c-4.9,0-9.4-0.7-13.3-2.1c-3.9-1.4-7.2-3.3-9.8-5.8c-2.6-2.4-4.8-5.4-6.5-8.9
			c-1.7-3.5-2.9-7.1-3.7-11c-0.8-3.9-1.1-8.1-1.1-12.7v-23.8c0-4.6,0.4-8.8,1.1-12.7c0.8-3.9,2-7.6,3.7-11c1.7-3.5,3.8-6.4,6.5-8.9
			s5.9-4.4,9.8-5.8c3.9-1.4,8.4-2.1,13.3-2.1v21.6c-3.5,0-6.1,1.6-7.7,4.8c-1.6,3.2-2.4,8.6-2.4,16.2v19.6c0,7.6,0.8,12.9,2.4,16.2
			C675,1074.9,677.6,1076.5,681.1,1076.5z M687.1,1098.1v-21.6c3.5,0,6.1-1.6,7.7-4.8c1.6-3.2,2.4-8.6,2.4-16.2v-19.6
			c0-7.6-0.8-12.9-2.4-16.2c-1.6-3.2-4.2-4.8-7.7-4.8v-21.6c5,0,9.4,0.7,13.4,2.1c3.9,1.4,7.2,3.3,9.8,5.8c2.6,2.4,4.7,5.4,6.5,8.9
			c1.7,3.5,2.9,7.1,3.7,11c0.7,3.9,1.1,8.1,1.1,12.7v23.8c0,4.6-0.4,8.8-1.1,12.7c-0.7,3.9-1.9,7.6-3.7,11c-1.7,3.5-3.9,6.4-6.5,8.9
			c-2.6,2.4-5.8,4.4-9.8,5.8C696.5,1097.4,692.1,1098.1,687.1,1098.1z"/>
	</g>
</g>
</svg>
