<?xml version="1.0" encoding="utf-8"?>
<!-- Generator: Adobe Illustrator 27.9.0, SVG Export Plug-In . SVG Version: 6.00 Build 0)  -->
<svg version="1.1" id="Layer_1" xmlns="http://www.w3.org/2000/svg" xmlns:xlink="http://www.w3.org/1999/xlink" x="0px" y="0px"
	 viewBox="0 0 1741.6 1389.9" style="enable-background:new 0 0 1741.6 1389.9;" xml:space="preserve">
<style type="text/css">
	.st0{fill:#FFFFFF;}
	.st1{fill:#FFB600;}
	.st2{enable-background:new    ;}
</style>
<g>
	<path class="st0" d="M965.8,170.5c-37.7,160.1-37.7,162.4-3.1,63.1l31-88.8l48.2,170.6c26.3,94.6,50,174.6,52.9,178.2
		c3.1,4,81,9.6,172.4,12.3l165.9,5.8l-113.3,81c-63.1,45.1-115.1,81.9-116.9,83.2c-1.8,0.9,3.1,11.4,10.5,21.9l13.2,21.4L1394.7,595
		l169.1-124.2l-217.9-2.7l-217-1.8l-53.8-169.7c-30.6-92.8-58.7-182-63.6-197.4s-10.5-31-14.1-34.1
		C994.4,60.1,980.3,108.3,965.8,170.5L965.8,170.5z M496.1,285.6C371,326.4,293.4,416.5,269.7,545.7c-25.2,141.4,54.9,290.6,188,352
		c58.7,27.7,160.1,34.1,217,14.9c21.4-7.4,39.9-11.4,41.5-9.6c1.8,0.9-14.1,54.6-35,118.7c-20.5,64.5-35.9,117.8-34.1,119.1
		c3.1,4,345-247.8,347.9-255.6c0.9-4-10.5-10.5-25.4-15.4c-26.3-8.3-31-5.8-116.9,55.5c-49.1,35-91.4,64-94.6,64.5
		c-2.7,0,4-29.2,14.9-66c15.4-48.2,31-78.3,58.2-112c60.4-74.5,70.9-105.5,71.8-210.1c0-85.9-1.8-93.2-27.2-144.5
		C805.7,313.7,638.8,238.3,496.1,285.6L496.1,285.6z M649.3,314.6c66.9,17.2,131.4,55.5,121.8,70.9c-7.4,12.3-45.9,8.3-91.4-9.1
		c-23.6-9.1-49.1-16.3-56.4-16.3s-30.1-9.6-50.9-21.9c-31.9-18.7-35-21.9-21.4-27.7C575.7,301.4,604.7,302.3,649.3,314.6z
		 M482,335.6c-15.4,9.1-31.9,15.4-36.8,15.4c-4,0,4.9-6.5,20.5-15.4c15.8-8.7,32.8-15.4,36.8-15.4
		C507.5,320.2,497.4,326.9,482,335.6z M686.1,390.2c39.9,16.3,61.3,38.6,81,85c16.3,36.8,16.3,41.5,4.9,64.5
		c-23.6,45.1-61.3,81.9-85,81.9c-34.1,0-102.8-22.7-116.9-38.6c-7.4-8.3-21.9-42.4-33.7-75.4c-23.6-70.5-21.9-78.3,28.5-115.1
		C602,365.7,625.7,365.7,686.1,390.2L686.1,390.2z M406,398.5c-17.8,40.8-84.1,144.5-94.6,147.9c-22.7,7.4,21.4-97.2,60.4-144.5
		C400.2,368.3,420.9,366.6,406,398.5L406,398.5z M500.1,448.4c10.5,11.4,47.3,118.7,47.3,139.6c0,11.4-13.2,40.8-28.5,64.5
		c-32.8,47.3-52.2,52.9-107.7,30.1c-45.1-18.7-58.2-34.1-68.7-82.7c-9.1-39.9-8.3-45.9,11.4-86.8c11.4-23.6,29.2-52.2,39.5-63.1
		c15.4-17.2,22.7-17.8,59.6-13.2C475.6,440.2,496.5,444.8,500.1,448.4z M826.6,540.8c38.6,20.5,52.2,121.8,23.6,182.9
		c-21.9,48.2-51.7,72.7-80.1,66c-52.2-13.2-59.6-24.5-59.6-88.8c0-59.6,0-60.4,41.5-114.2c23.6-30.1,45.9-54.6,50-54.6
		S817,536.1,826.6,540.8L826.6,540.8z M871.7,570.2c-2.7,8.3-4,3.1-4-9.6c0-14.1,1.8-19.6,4-14.9
		C873.5,551.2,873.5,562.6,871.7,570.2z M429.6,701.1c35,10.5,52.2,22.7,88.3,64.5l45.1,50.9l-17.8,27.2
		c-21.9,32.8-44.2,37.7-82.7,19.6c-73.6-35-120.9-102.8-107.7-154.6C361.4,682.6,371.9,682.2,429.6,701.1z M338.2,732.6
		c2.7,6.5,1.8,9.6-3.1,7.4c-4.9-2.7-8.3-8.3-8.3-13.2C326.8,715.4,332.4,718.1,338.2,732.6z M750.8,793.9
		c38.6,14.1,29.2,31.9-33.7,64c-40.8,20.5-67.8,28.5-111.1,31.9c-66.9,4-77.4-4-49.1-40.8c14.1-17.8,35.9-31,72.7-43.3
		C691.9,784.1,715.8,781.6,750.8,793.9z"/>
	<path class="st1" d="M920.8,427.9c64.5,61.3,139.6,147,161.9,184.7c3.1,5.8-15.4-3.1-41.5-21.4c-26.3-17.8-57.3-36.8-68.7-42.4
		c-22.7-10.5-25.4-14.1,43.3,42.4c33.7,27.7,114.2,120,132.3,152.8c4,6.5-3.1,3.1-16.3-6.5C1095.8,709.8,999.5,646,993,646
		c-3.1,0,16.3,16.3,43.3,36.8c62.2,46.4,131.4,121.8,178.2,191.4c37.7,58.2,81,147.9,70.5,147.9c-4,0-19.6-13.2-35-29.2
		c-41.5-43.3-126.5-99-194.3-125.6c-32.8-14.1-64-24.5-69.6-23.6c-4.9,0,7.4,6.5,27.7,15.4c99.7,39.9,209.2,124.2,277.9,211.4
		c24.5,31.9,45.9,53.8,47.3,50c1.8-4-6.5-45.9-17.8-94.1c-64-262.3-214.1-483.8-437.8-642.1C858.5,366.6,872.6,383.3,920.8,427.9
		L920.8,427.9z"/>
	<g class="st2">
		<path class="st0" d="M810.6,1278.8h-39.3v-125.1h39.3V1278.8z M854.7,1322.3h-83.9v-34.8h83.9c6,0,10.7,1.6,14.3,4.7
			c3.1,3.1,4.9,7.4,4.9,12.7c0,5.1-1.8,9.4-4.9,12.7C865.4,1320.5,861,1322.3,854.7,1322.3z"/>
		<path class="st0" d="M981,1188.5h-89.2v-34.8H981c6,0,10.7,1.6,14.3,4.7c3.6,3.1,4.9,7.4,4.9,12.7c0,5.4-1.8,9.4-4.9,12.7
			C991.7,1186.7,986.8,1188.5,981,1188.5z M931.2,1322.3H892v-124.9h39.3V1322.3z M992.1,1254.3h-51.5v-34.8h51.5V1254.3z
			 M998.8,1322.3h-58.2v-34.8h58.2V1322.3z"/>
		<path class="st0" d="M1067.3,1253.4h22.3l7.4,34.6h-37.5l-8,34.3h-40.4l31.7-124.9h37.2L1067.3,1253.4z M1114.4,1153.7l40.8,168.6
			H1115l-30.3-133.8h-27.4c-6.2,0-10.9-1.6-14.5-4.7c-3.1-2.9-4.9-7.1-4.9-12.7s1.8-9.4,4.9-12.7c3.1-3.1,8.3-4.7,14.3-4.7H1114.4z"
			/>
		<path class="st0" d="M1167.4,1257.8v-39.7c0-9.4,1.3-18.1,4-26.1c2.7-8,6.5-15.2,11.4-21.4c4.9-6.2,11.6-11.2,19.6-14.7
			c8.3-3.6,17.2-5.1,27.7-5.1v35.9c-6.5,0-11.6,2.7-15.8,8.5s-6.2,14.5-6.2,26.3v32.6c0,12,2,20.7,6.2,26.3
			c4.2,5.8,9.4,8.5,15.8,8.5v35.9c-10.3,0-19.4-1.8-27.7-5.1s-14.7-8.5-19.6-14.7c-4.9-6.2-8.9-13.4-11.4-21.4
			C1169,1275.7,1167.4,1267,1167.4,1257.8z M1297.9,1227.3v36.1c0,19.2-4.7,34.1-14.3,45.3c-9.4,10.9-23.9,16.5-43.3,16.5v-35.9
			c6,0,10.7-1.8,14.5-5.1s5.8-8.7,5.8-15.6v-5.6h-22.3V1227h59.8v0.2H1297.9z M1293,1180.4l-29.4,19.9c-4.2-9.1-12-13.6-23.4-13.6
			v-35.9C1266.7,1150.5,1284.3,1160.6,1293,1180.4z"/>
		<path class="st0" d="M1380,1289.3v35.9c-8.7,0-16.5-1.3-23.4-3.8c-6.9-2.5-12.5-5.8-17-10c-4.5-4.2-8.3-9.4-11.2-15.4
			c-2.9-6-4.9-12.3-6.2-19c-1.3-6.5-1.8-13.6-1.8-21.4v-102.4h39.5V1254c0,12.7,1.8,21.9,5.1,27.2
			C1368.6,1286.8,1373.5,1289.3,1380,1289.3z M1390,1325.2v-35.9c6.5,0,11.4-2.7,14.9-8c3.6-5.6,5.1-14.5,5.1-27.2v-100.8h39.3
			v102.4c0,9.6-0.9,18.5-3.1,26.3c-2.2,8-5.6,15.2-10,21.9c-4.5,6.5-10.7,11.6-18.7,15.4C1409.4,1322.9,1400.5,1325.2,1390,1325.2z"
			/>
		<path class="st0" d="M1565.6,1188.5h-89.2v-34.8h89.2c6,0,10.7,1.6,14.3,4.7c3.6,3.1,4.9,7.4,4.9,12.7c0,5.4-1.8,9.4-4.9,12.7
			C1576.3,1186.7,1571.6,1188.5,1565.6,1188.5z M1515.6,1322.3h-39.3v-124.9h39.3V1322.3z M1576.7,1254.3h-51.5v-34.8h51.5V1254.3z
			 M1583.4,1322.3h-58.2v-34.8h58.2V1322.3z"/>
	</g>
	<g>
		<path class="st1" d="M243.8,1187.3h-86.8v-33.9h86.8c5.8,0,10.5,1.6,13.8,4.7c3.3,3.1,4.9,7.1,4.9,12.3s-1.6,9.4-4.9,12.3
			C254.3,1186,249.6,1187.3,243.8,1187.3z M195.2,1317.8h-38.4v-121.6h38.4V1317.8z M254.5,1251.6h-50.2v-33.9h50.2V1251.6z
			 M261.2,1317.8h-56.9v-33.9h56.9V1317.8z"/>
		<path class="st1" d="M322.8,1275.4h-38.1v-121.8H323v121.8H322.8z M366.1,1317.8h-81.4v-33.9h81.6c5.8,0,10.5,1.6,13.8,4.7
			c3.3,3.1,4.9,7.1,4.9,12.3c0,5.1-1.6,9.4-4.9,12.3C376.8,1316,372.1,1317.8,366.1,1317.8z"/>
		<path class="st1" d="M440.3,1317.8H402v-164.2h38.4V1317.8z"/>
		<path class="st1" d="M546.3,1187.3h-89.9v-33.9h89.9c5.8,0,10.5,1.6,13.8,4.7c3.3,3.1,4.9,7.1,4.9,12.3s-1.6,9.1-4.9,12.3
			C556.8,1185.8,552.3,1187.3,546.3,1187.3z M525.5,1317.8h-38.4v-123.1h38.4V1317.8z"/>
		<path class="st1" d="M664.5,1187.3h-86.8v-33.9h86.8c5.8,0,10.5,1.6,13.8,4.7s4.9,7.1,4.9,12.3s-1.6,9.4-4.9,12.3
			C675,1186,670.5,1187.3,664.5,1187.3z M616.1,1317.8h-38.4v-121.6h38.4V1317.8z M675.4,1251.6h-50.2v-33.9h50.2V1251.6z
			 M681.9,1317.8H625v-33.9h56.9V1317.8z"/>
	</g>
</g>
</svg>
