<?xml version="1.0" encoding="utf-8"?>
<!-- Generator: Adobe Illustrator 27.9.0, SVG Export Plug-In . SVG Version: 6.00 Build 0)  -->
<svg version="1.1" id="Layer_1" xmlns="http://www.w3.org/2000/svg" xmlns:xlink="http://www.w3.org/1999/xlink" x="0px" y="0px"
	 viewBox="0 0 1741.6 1389.9" style="enable-background:new 0 0 1741.6 1389.9;" xml:space="preserve">
<style type="text/css">
	.st0{fill:#FFFFFF;}
	.st1{fill:#FFB600;}
	.st2{enable-background:new    ;}
</style>
<g>
	<path class="st0" d="M935.2,155.5c-38,161.6-38,163.8-3.1,63.6l31.2-89.6l48.5,172.2c26.5,95.5,50.4,176.1,53.4,179.8
		c3.1,4.1,81.7,9.7,173.9,12.3l167.5,5.9l-114.2,81.7c-63.6,45.5-116.1,82.6-117.9,83.9c-1.8,0.9,3.1,11.4,10.6,22l13.3,21.6
		l169.7-125.4L1538.6,458l-219.8-2.6l-218.9-1.8l-54.3-171.3c-30.8-93.6-59.2-183.6-64.1-199.1c-5-15.5-10.6-31.2-14.2-34.5
		C964.1,44.2,949.9,92.7,935.2,155.5L935.2,155.5z M461.4,271.6C335.1,312.9,256.8,403.8,233.1,534
		c-25.4,142.7,55.3,293.1,189.6,355c59.2,27.9,161.6,34.5,218.9,15.1c21.6-7.5,40.3-11.4,41.8-9.7c1.8,0.9-14.2,55.1-35.3,119.7
		c-20.7,65-36.2,118.8-34.5,120.1c3.1,4.1,348.1-250,351.1-257.8c0.9-4.1-10.6-10.6-25.7-15.5c-26.5-8.4-31.2-5.9-117.9,56
		c-49.6,35.3-92.2,64.5-95.5,65c-2.6,0,4.1-29.5,15.1-66.6c15.5-48.5,31.2-79,58.7-112.9c61-75.1,71.6-106.5,72.4-211.9
		c0-86.7-1.8-94-27.4-145.8C773.8,299.9,605.4,224,461.4,271.6L461.4,271.6z M616,301c67.5,17.3,132.6,56,122.9,71.6
		c-7.5,12.3-46.3,8.4-92.2-9.2c-23.9-9.2-49.6-16.4-56.9-16.4c-7.5,0-30.4-9.7-51.3-22c-32.1-18.9-35.3-22-21.6-27.9
		C541.8,287.6,570.9,288.5,616,301z M447.2,322.1c-15.5,9.2-32.1,15.5-37.1,15.5c-4.1,0,5-6.5,20.7-15.5c16-8.8,33.1-15.5,37.1-15.5
		C472.8,306.5,462.7,313.3,447.2,322.1z M653.1,377.2c40.3,16.4,61.9,38.9,81.7,85.8c16.4,37.1,16.4,41.8,5,65
		c-23.9,45.5-61.9,82.6-85.8,82.6c-34.5,0-103.7-23-117.9-38.9c-7.5-8.4-22-42.8-34-76.1c-23.9-71.1-22-79,28.7-116.1
		C568.3,352.4,592.2,352.4,653.1,377.2L653.1,377.2z M370.5,385.4c-18,41.2-84.8,145.8-95.5,149.1c-23,7.5,21.6-98.1,61-145.8
		C364.6,355.1,385.6,353.3,370.5,385.4L370.5,385.4z M465.5,435.9c10.6,11.4,47.7,119.7,47.7,140.9c0,11.4-13.3,41.2-28.7,65
		c-33.1,47.7-52.6,53.4-108.7,30.4c-45.5-18.9-58.7-34.5-69.4-83.4c-9.2-40.3-8.4-46.3,11.4-87.5c11.4-23.9,29.5-52.6,39.9-63.6
		c15.5-17.3,23-18,60.1-13.3C440.7,427.5,461.8,432.4,465.5,435.9z M794.9,529c38.9,20.7,52.6,122.9,23.9,184.5
		c-22,48.5-52.2,73.3-80.8,66.6c-52.6-13.3-60.1-24.8-60.1-89.6c0-60.1,0-61,41.8-115.3c23.9-30.4,46.3-55.1,50.4-55.1
		C774.2,520.1,785.2,524.3,794.9,529L794.9,529z M840.3,558.8c-2.6,8.4-4.1,3.1-4.1-9.7c0-14.2,1.8-19.8,4.1-15.1
		C842.1,539.6,842.1,551.1,840.3,558.8z M394.4,690.9c35.3,10.6,52.6,23,89.2,65l45.5,51.3l-18,27.4c-22,33.1-44.6,38-83.4,19.8
		c-74.2-35.3-122-103.7-108.7-155.9C325.5,672.1,336,671.7,394.4,690.9z M302.1,722.6c2.6,6.5,1.8,9.7-3.1,7.5
		c-5-2.6-8.4-8.4-8.4-13.3C290.7,705.3,296.3,707.9,302.1,722.6z M718.3,784.5c38.9,14.2,29.5,32.1-34,64.5
		c-41.2,20.7-68.3,28.7-112,32.1c-67.5,4.1-78-4.1-49.6-41.2c14.2-18,36.2-31.2,73.3-43.7C658.9,774.5,683,772,718.3,784.5z"/>
	<path class="st1" d="M889.9,415.2c65,61.9,140.9,148.3,163.4,186.2c3.1,5.9-15.5-3.1-41.8-21.6c-26.5-18-57.8-37.1-69.4-42.8
		c-23-10.6-25.7-14.2,43.7,42.8c34,27.9,115.3,121,133.4,154.1c4.1,6.5-3.1,3.1-16.4-6.5c-36.2-27.9-133.4-92.2-139.9-92.2
		c-3.1,0,16.4,16.4,43.7,37.1c62.8,46.8,132.6,122.9,179.8,193c38,58.7,81.7,149.1,71.1,149.1c-4.1,0-19.8-13.3-35.3-29.5
		c-41.8-43.7-127.6-99.9-195.9-126.7c-33.1-14.2-64.5-24.8-70.2-23.9c-5,0,7.5,6.5,27.9,15.5c100.6,40.3,211,125.4,280.4,213.4
		c24.8,32.1,46.3,54.3,47.7,50.4c1.8-4.1-6.5-46.3-18-94.9c-64.5-264.5-216-488-441.7-647.7C827,353.3,841.2,370.2,889.9,415.2
		L889.9,415.2z"/>
	<g class="st2">
		<path class="st0" d="M752.3,1295.6h-35.5v-113.2h35.5V1295.6z M792.4,1334.9h-75.8v-31.5h75.8c5.4,0,9.7,1.3,12.8,4.3
			c2.9,2.9,4.5,6.7,4.5,11.4s-1.6,8.5-4.5,11.4C802.1,1333.5,797.9,1334.9,792.4,1334.9z"/>
		<path class="st0" d="M906.5,1214h-80.8v-31.5h80.8c5.4,0,9.7,1.3,12.8,4.3c3.1,2.9,4.5,6.7,4.5,11.4c0,4.7-1.6,8.5-4.5,11.4
			C916.1,1212.4,911.7,1214,906.5,1214z M861.4,1334.9H826V1222h35.5V1334.9z M916.6,1273.6h-46.6v-31.5h46.6V1273.6z M922.6,1334.9
			h-52.6v-31.5h52.6V1334.9z"/>
		<path class="st0" d="M984.5,1272.6h20.2l6.7,31.2h-34l-7.2,31.1h-36.5l28.6-112.9h33.7L984.5,1272.6z M1027.3,1182.4l37,152.5
			H1028l-27.4-121h-24.8c-5.6,0-10-1.3-13.1-4.3c-2.9-2.6-4.5-6.5-4.5-11.4c0-5,1.6-8.5,4.5-11.4c2.9-2.9,7.5-4.3,12.8-4.3h51.8
			V1182.4z"/>
		<path class="st0" d="M1075.1,1276.7v-35.9c0-8.5,1.2-16.4,3.7-23.6c2.5-7.2,5.9-13.8,10.4-19.4c4.5-5.6,10.6-10.1,17.7-13.3
			c7.5-3.1,15.5-4.7,24.9-4.7v32.4c-5.9,0-10.6,2.5-14.4,7.6c-3.8,5.1-5.6,13.1-5.6,23.9v29.5c0,10.9,1.8,18.6,5.6,23.9
			c3.8,5.1,8.5,7.6,14.4,7.6v32.4c-9.2,0-17.6-1.6-24.9-4.7c-7.5-3.1-13.3-7.6-17.7-13.3c-4.5-5.6-8.1-12.2-10.4-19.4
			C1076.6,1293,1075.1,1285.1,1075.1,1276.7z M1193.3,1249v32.6c0,17.3-4.3,30.8-12.8,40.9c-8.5,10-21.6,14.8-39.2,14.8v-32.4
			c5.4,0,9.7-1.6,13.1-4.7c3.4-3.1,5.1-7.9,5.1-14.2v-5h-20.2v-32.4h54L1193.3,1249L1193.3,1249z M1188.7,1206.8l-26.5,18
			c-3.8-8.4-10.9-12.3-21.1-12.3v-32.4C1165,1179.8,1180.8,1188.7,1188.7,1206.8z"/>
		<path class="st0" d="M1267.5,1305.3v32.4c-7.9,0-14.8-1.2-21.1-3.4c-6.3-2.2-11.3-5.1-15.3-8.9s-7.5-8.5-10.1-13.9
			s-4.5-11-5.6-17.2c-1.2-5.9-1.6-12.3-1.6-19.4v-92.7h35.8v91.1c0,11.4,1.6,19.8,4.7,24.5
			C1257.2,1303.1,1261.6,1305.3,1267.5,1305.3z M1276.6,1337.7v-32.4c5.9,0,10.4-2.5,13.5-7.2c3.1-5,4.7-13.1,4.7-24.5v-91.1h35.5
			v92.7c0,8.8-0.9,16.7-2.9,23.9c-2.1,7.2-5,13.8-8.9,19.8c-4.1,5.9-9.7,10.6-16.9,13.9C1294.3,1336.3,1286,1337.7,1276.6,1337.7z"
			/>
		<path class="st0" d="M1435.4,1214h-80.8v-31.5h80.8c5.4,0,9.7,1.3,12.8,4.3s4.5,6.7,4.5,11.4c0,4.7-1.6,8.5-4.5,11.4
			C1445.1,1212.4,1440.8,1214,1435.4,1214z M1390.1,1334.9h-35.5V1222h35.5V1334.9z M1445.5,1273.6h-46.6v-31.5h46.6V1273.6z
			 M1451.5,1334.9h-52.6v-31.5h52.6V1334.9z"/>
	</g>
	<g>
		<path class="st1" d="M363,1287.9h-3.1c-3.5,0-6.6-1.5-9.2-4.3c-2.6-2.8-4-6.5-4-11.1c0-4.5,1.2-8.4,3.7-11.1s5.6-4.1,9.1-4.1h1.6
			c4.5,0,8.2-1.6,11.1-5s4.5-8.2,4.5-14.8c0-6.2-1.6-11.1-4.8-14.8c-3.2-3.7-8.5-5.6-16-5.6h-48.4v-30.5h50
			c17.6,0,30.9,4.4,40.2,13.1c9.2,8.7,13.9,21.3,13.9,38c0,16-4.3,28.4-12.9,37.2C390.4,1283.6,378.6,1287.9,363,1287.9z
			 M342.5,1334.9h-34.6v-110h34.6V1334.9z"/>
		<path class="st1" d="M491.6,1274.2h-4.8c-5.3,0-9.4-1.3-12.3-4.1c-2.9-2.8-4.4-6.5-4.4-11.1c0-4.5,1.5-8.4,4.4-11.1
			s7-4.1,12.3-4.1h2.6c8.9,0,13.3-4.3,13.3-12.9c0-8.9-5.4-13.5-16.4-13.5h-57.2v-30.5h61.4c14.5,0,26,3.8,34.2,11.3
			c8.2,7.5,12.3,18.3,12.3,32.7s-4,25.4-11.9,32.7C517.3,1270.6,506.1,1274.2,491.6,1274.2z M463.7,1334.9h-34.6v-110h34.6V1334.9z
			 M541,1334.9h-38l-25.4-54.3h36.2L541,1334.9z"/>
		<path class="st1" d="M605.3,1306.1v31.7c-7.2,0-13.8-1-19.5-3.1c-5.7-2.1-10.6-4.8-14.4-8.5c-3.8-3.5-7-7.9-9.5-13.1
			s-4.3-10.4-5.4-16.1c-1.2-5.7-1.6-11.9-1.6-18.6v-34.9c0-6.7,0.6-12.9,1.6-18.6c1.2-5.7,2.9-11.1,5.4-16.1
			c2.5-5.1,5.6-9.4,9.5-13.1s8.7-6.5,14.4-8.5c5.7-2.1,12.3-3.1,19.5-3.1v31.7c-5.1,0-8.9,2.3-11.3,7c-2.3,4.7-3.5,12.6-3.5,23.8
			v28.7c0,11.1,1.2,18.9,3.5,23.8C596.3,1303.7,600.1,1306.1,605.3,1306.1z M614.1,1337.7v-31.7c5.1,0,8.9-2.3,11.3-7
			c2.3-4.7,3.5-12.6,3.5-23.8v-28.7c0-11.1-1.2-18.9-3.5-23.8c-2.3-4.7-6.2-7-11.3-7v-31.7c7.3,0,13.8,1,19.7,3.1
			c5.7,2.1,10.6,4.8,14.4,8.5c3.8,3.5,6.9,7.9,9.5,13.1c2.5,5.1,4.3,10.4,5.4,16.1c1,5.7,1.6,11.9,1.6,18.6v34.9
			c0,6.7-0.6,12.9-1.6,18.6c-1,5.7-2.8,11.1-5.4,16.1c-2.5,5.1-5.7,9.4-9.5,13.1c-3.8,3.5-8.5,6.5-14.4,8.5
			C627.8,1336.7,621.4,1337.7,614.1,1337.7z"/>
	</g>
</g>
</svg>
